<svg xmlns="http://www.w3.org/2000/svg" xmlns:xlink="http://www.w3.org/1999/xlink" xmlns:lucid="lucid" width="1692" height="603"><g transform="translate(82 603)" lucid:page-tab-id="SVqXRFmNeIsj"><path d="M-500-1000h2500V500H-500z" fill="#fff"/><path d="M105.75-59.72H-12a8 8 0 0 1-8-8v-304a8 8 0 0 1 8-8h117.75z" fill="#fff"/><path d="M100.84-59.72h-1.96m-3.92 0H93m-3.93 0H87.1m-3.92 0h-1.96m-3.93 0h-1.97m-3.92 0h-1.96m-3.92 0h-1.96m-3.93 0h-1.96m-3.93 0h-1.96m-3.92 0H45.9m-3.93 0H40m-3.92 0h-1.96m-3.93 0h-1.97m-3.92 0h-1.96m-3.92 0h-1.96m-3.93 0h-1.96m-3.93 0H4.68m-3.92 0H-1.2m-3.93 0H-7.1m-3.92 0H-12l-1.04-.1m-3.82-1.57l-.8-.67-.68-.8m-1.58-3.8l-.08-1.05v-1m0-3.97v-1.98m0-3.97v-2m0-3.96v-2m0-3.97v-2m0-3.96v-2m0-3.97v-1.98m0-3.98v-1.98m0-3.98v-1.98m0-3.98v-1.98m0-3.98v-1.98m0-3.98v-2m0-3.96v-2m0-3.96v-2m0-3.96v-2m0-3.96v-2m0-3.96v-2m0-3.96v-2m0-3.96v-2m0-3.97v-1.97m0-3.98v-1.98m0-3.98v-2m0-3.97v-1.98m0-3.98v-1.98m0-4v-1.98m0-3.97v-2m0-3.96v-2m0-3.97v-2m0-3.96v-2m0-3.96v-1.98m0-3.97v-2m0-3.96v-2m0-3.98v-1.98m0-3.98v-1.98m0-3.98v-1.98m0-3.98v-1.98m0-3.98v-2m0-3.96v-2m0-3.96v-2m0-3.96v-2m0-3.96v-2m0-3.96v-2m0-3.96v-2m0-3.96v-2m0-3.96v-2m0-3.96v-2m0-3.97v-1.98m0-4v-1.97m0-3.98v-1.98m0-3.98v-2m0-3.97v-2m0-3.96v-1l.08-1.04m1.58-3.8l.68-.8.8-.7m3.82-1.57l1.04-.08h.98m3.93 0h1.97m3.92 0H.75m3.92 0h1.96m3.93 0h1.96m3.93 0h1.96m3.92 0h1.97m3.93 0h1.96m3.92 0h1.96m3.93 0h1.97m3.92 0h1.96m3.92 0h1.96m3.93 0h1.96m3.93 0h1.96m3.92 0h1.97m3.93 0h1.96m3.92 0h1.96m3.93 0h1.97m3.92 0h1.96m3.92 0h1.96m3.93 0h.98v1m0 4.03v2.02m0 4.03v2m0 4.03v2.02m0 4.02v2m0 4.04v2m0 4.04v2m0 4.03v2.02m0 4.02v2m0 4.04v2.02m0 4.03v2m0 4.04v2m0 4.02v2.02m0 4.02v2m0 4.04v2m0 4.04v2m0 4.03v2.02m0 4v2.02m0 4.03v2m0 4.04v2m0 4.02v2.02m0 4.02v2m0 4.04v2m0 4.04v2m0 4.04v2m0 4.03v2.03m0 4.02v2m0 4.04v2m0 4.03v2m0 4.03v2.02m0 4.02v2m0 4.04v2m0 4.04v2m0 4.03v2.03m0 4.02v2.02m0 4.02v2m0 4.03v2m0 4.04v2m0 4.03v2.02m0 4.02v2m0 4.04v2m0 4.04v2m0 4.04v2m0 4.03v2m0 4.03v2m0 4.04v2m0 4.04v2.02m0 4.02v2.02m0 4.02v2m0 4.04v2m0 4.04v2m0 4.03v2m0 4.03v2.02m0 4.02v1h-.98" stroke="#333" fill="none"/><path d="M105.75-379.72h1436.1a8 8 0 0 1 8 8v304a8 8 0 0 1-8 8H105.75z" fill="none"/><path d="M110.76-379.72h2m4 0h2m4.02 0h2m4 0h2m4 0h2m4.02 0h2m4 0h2m4.02 0h2m4 0h2m4.02 0h2m4 0h2m4 0h2.02m4 0h2m4 0h2m4.02 0h2m4 0h2m4.02 0h2m4 0h2m4 0h2.02m4 0h2m4 0h2.02m4 0h2m4 0h2m4.02 0h2m4 0h2m4.02 0h2m4 0h2m4 0H275m4 0h2m4 0h2m4.02 0h2m4 0h2m4.02 0h2m4 0h2m4.02 0h2m4 0h2m4 0h2.02m4 0h2m4 0h2m4.02 0h2m4 0h2m4.02 0h2m4 0h2m4 0h2.02m4 0h2m4 0h2.02m4 0h2m4 0h2m4.02 0h2m4 0h2m4.02 0h2m4 0h2m4 0h2.02m4 0h2m4 0h2m4.02 0h2m4 0h2m4.02 0h2m4 0h2m4.02 0h2m4 0h2m4 0h2.02m4 0h2m4 0h2m4.02 0h2m4 0h2m4.02 0h2m4 0h2m4 0h2.02m4 0h2m4 0h2m4.02 0h2m4 0h2m4.02 0h2m4 0h2m4.02 0h2m4 0h2m4 0h2.02m4 0h2m4 0h2m4.02 0h2m4 0h2m4.02 0h2m4 0h2m4 0h2.02m4 0h2m4 0h2.02m4 0h2m4 0h2m4.02 0h2m4 0h2m4.02 0h2m4 0h2m4 0h2.02m4 0h2m4 0h2m4.02 0h2m4 0h2m4.02 0h2m4 0h2m4.02 0h2m4 0h2m4 0h2.02m4 0h2m4 0h2m4.02 0h2m4 0h2m4.02 0h2m4 0h2m4 0h2.02m4 0h2m4 0h2.02m4 0h2m4 0h2m4.02 0h2m4 0h2m4.02 0h2m4 0h2m4 0h2.02m4 0h2m4 0h2.02m4 0h2m4 0h2m4.02 0h2m4 0h2m4.02 0h2m4 0h2m4 0h2.02m4 0h2m4 0h2m4.02 0h2m4 0h2m4.02 0h2m4 0h2m4 0h2.02m4 0h2m4 0h2m4.02 0h2m4 0h2m4.02 0h2m4 0h2m4.02 0h2m4 0h2m4 0h2.02m4 0h2m4 0h2m4.02 0h2m4 0h2m4.02 0h2m4 0h2m4.02 0h2m4 0h2m4 0h2.02m4 0h2m4 0h2m4.02 0h2m4 0h2m4.02 0h2m4 0h2m4 0h2.02m4 0h2m4 0h2m4.02 0h2m4 0h2m4.02 0h2m4 0h2m4.02 0h2m4 0h2m4 0h2.02m4 0h2m4 0h2m4.02 0h2m4 0h2m4.02 0h2m4 0h2m4.02 0h2m4 0h2m4 0h2.02m4 0h2m4 0h2m4.02 0h2m4 0h2m4.02 0h2m4 0h2m4 0h2.02m4 0h2m4 0h2m4.02 0h2m4 0h2m4.02 0h2m4 0h2m4.02 0h2m4 0h2m4 0h2.02m4 0h2m4 0h2m4.02 0h2m4 0h2m4.02 0h2m4 0h2m4.02 0h2m4 0h2m4 0h2.02m4 0h2m4 0h2m4.02 0h2m4 0h2m4.02 0h2m4 0h2m4 0h2.02m4 0h2m4 0h2m4.02 0h2m4 0h2m4.02 0h2m4 0h2m4 0h2.02m4 0h2m4 0h2.02m4 0h2m4 0h2m4.02 0h2m4 0h2m4.02 0h2m4 0h2m4 0h2.02m4 0h2m4 0h2.02m4 0h2m4 0h2m4.02 0h2m4 0h2m4.02 0h2m4 0h2m4 0h2.02m4 0h2m4 0h2m4.02 0h2m4 0h1l1.05.08m3.8 1.58l.8.68.7.8m1.57 3.8l.08 1.06v1m0 3.96v2m0 3.96v2m0 3.97v1.98m0 3.98v1.98m0 4v1.97m0 3.98v2m0 3.96v2m0 3.97v2m0 3.96v2m0 3.96v1.98m0 3.97v2m0 3.96v2m0 3.97v2m0 3.96v2m0 3.96v1.98m0 3.98v1.98m0 3.98v1.98m0 3.98v1.98m0 3.98v1.98m0 3.98v2m0 3.96v2m0 3.96v2m0 3.96v2m0 3.96v2m0 3.96v2m0 3.96v2m0 3.96v2m0 3.97v1.97m0 3.98v1.98m0 3.98v2m0 3.97v1.98m0 3.98v1.98m0 4v1.98m0 3.97v2m0 3.96v2m0 3.97v2m0 3.96v2m0 3.96v1.98m0 3.97v2m0 3.96v2m0 3.98v1.98m0 3.98v1.98m0 3.98v1.98m0 3.98v1.98m0 3.98v1.98m0 3.98v2m0 3.96v2m0 3.96v2m0 3.96v2m0 3.96v2m0 3.96v1l-.08 1.04m-1.58 3.82l-.7.8-.8.67m-3.8 1.6l-1.05.08h-1m-4 0h-2m-4.02 0h-2m-4 0h-2m-4 0h-2.02m-4 0h-2m-4 0h-2m-4 0h-2m-4.02 0h-2m-4 0h-2m-4.02 0h-2m-4 0h-2m-4 0h-2.02m-4 0h-2m-4 0h-2m-4.02 0h-2m-4 0h-2m-4.02 0h-2m-4 0h-2m-4.02 0h-2m-4 0h-2m-4 0h-2.02m-4 0h-2m-4 0h-2m-4.02 0h-2m-4 0h-2m-4.02 0h-2m-4 0h-2m-4 0h-2.02m-4 0h-2m-4 0h-2m-4.02 0h-2m-4 0h-2m-4.02 0h-2m-4 0h-2m-4.02 0h-2m-4 0h-2m-4 0h-2.02m-4 0h-2m-4 0h-2m-4.02 0h-2m-4 0h-2m-4.02 0h-2m-4 0h-2m-4.02 0h-2m-4 0h-2m-4 0h-2.02m-4 0h-2m-4 0h-2m-4.02 0h-2m-4 0h-2m-4.02 0h-2m-4 0h-2m-4 0h-2.02m-4 0h-2m-4 0h-2.02m-4 0h-2m-4 0h-2m-4.02 0h-2m-4 0h-2m-4.02 0h-2m-4 0h-2m-4 0h-2.02m-4 0h-2m-4 0h-2m-4.02 0h-2m-4 0h-2m-4.02 0h-2m-4 0h-2m-4.02 0h-2m-4 0h-2m-4 0h-2.02m-4 0h-2m-4 0h-2m-4.02 0h-2m-4 0h-2m-4.02 0h-2m-4 0h-2m-4 0h-2.02m-4 0h-2m-4 0h-2m-4.02 0h-2m-4 0h-2m-4.02 0h-2m-4 0h-2m-4 0h-2.02m-4 0h-2m-4 0h-2.02m-4 0h-2m-4 0h-2m-4.02 0h-2m-4 0h-2m-4.02 0h-2m-4 0h-2m-4 0H976m-4 0h-2m-4 0h-2m-4.02 0h-2m-4 0h-2m-4.02 0h-2m-4 0h-2m-4.02 0h-2m-4 0h-2m-4 0h-2.02m-4 0h-2m-4 0h-2m-4.02 0h-2m-4 0h-2m-4.02 0h-2m-4 0h-2m-4 0h-2.02m-4 0h-2m-4 0h-2.02m-4 0h-2m-4 0h-2m-4.02 0h-2m-4 0h-2m-4.02 0h-2m-4 0h-2m-4 0h-2.02m-4 0h-2m-4 0h-2m-4.02 0h-2m-4 0h-2m-4.02 0h-2m-4 0h-2m-4.02 0h-2m-4 0h-2m-4 0h-2.02m-4 0h-2m-4 0h-2m-4.02 0h-2m-4 0h-2m-4.02 0h-2m-4 0h-2m-4 0h-2.02m-4 0h-2m-4 0h-2m-4.02 0h-2m-4 0h-2m-4.02 0h-2m-4 0h-2m-4.02 0h-2m-4 0h-2m-4 0h-2.02m-4 0h-2m-4 0h-2m-4.02 0h-2m-4 0h-2m-4.02 0h-2m-4 0h-2m-4 0h-2.02m-4 0h-2m-4 0h-2.02m-4 0h-2m-4 0h-2m-4.02 0h-2m-4 0h-2m-4.02 0h-2m-4 0h-2m-4 0h-2.02m-4 0h-2m-4 0h-2.02m-4 0h-2m-4 0h-2m-4.02 0h-2m-4 0h-2m-4.02 0h-2m-4 0h-2m-4 0h-2.02m-4 0h-2m-4 0h-2m-4.02 0h-2m-4 0h-2m-4.02 0h-2m-4 0h-2m-4 0h-2.02m-4 0h-2m-4 0h-2m-4.02 0h-2m-4 0h-2m-4.02 0h-2m-4 0h-2m-4.02 0h-2m-4 0h-2m-4 0h-2.02m-4 0h-2m-4 0h-2.02m-4 0h-2m-4 0h-2m-4.02 0h-2m-4 0h-2m-4.02 0h-2m-4 0h-2m-4 0h-2.02m-4 0h-2m-4 0h-2m-4.02 0h-2m-4 0h-2m-4.02 0h-2m-4 0h-2m-4.02 0h-2m-4 0h-2m-4 0h-2m-4.02 0h-2m-4 0h-2m-4.02 0h-2m-4 0h-2m-4.02 0h-2m-4 0h-2m-4 0H279m-4 0h-2m-4 0h-2m-4.02 0h-2m-4 0h-2m-4.02 0h-2m-4 0h-2m-4.02 0h-2m-4 0h-2m-4 0h-2.02m-4 0h-2m-4 0h-2m-4.02 0h-2m-4 0h-2m-4.02 0h-2m-4 0h-2m-4 0h-2.02m-4 0h-2m-4 0h-2.02m-4 0h-2m-4 0h-2m-4.02 0h-2m-4 0h-2m-4.02 0h-2m-4 0h-2m-4 0h-2.02m-4 0h-2m-4 0h-2m-4.02 0h-2m-4 0h-1v-1m0-4.03v-2.02m0-4.02v-2m0-4.03v-2m0-4.04v-2m0-4.04v-2.02m0-4.02v-2.02m0-4.02v-2m0-4.04v-2m0-4.04v-2m0-4.03v-2m0-4.03v-2.02m0-4.02v-2m0-4.04v-2.02m0-4.03v-2m0-4.03v-2.02m0-4.02v-2m0-4.04v-2m0-4.04v-2m0-4.03v-2.02m0-4.02v-2.02m0-4v-2.02m0-4.03v-2m0-4.03v-2.02m0-4.02v-2m0-4.04v-2m0-4.04v-2m0-4.04v-2m0-4.03v-2.02m0-4v-2.02m0-4.03v-2m0-4.04v-2m0-4.03v-2m0-4.03v-2.02m0-4.02v-2m0-4.04v-2m0-4.04v-2m0-4.03v-2.03m0-4.02v-2m0-4.04v-2m0-4.03v-2m0-4.03v-2.02m0-4.02v-2m0-4.04v-2m0-4.04v-2m0-4.04v-2m0-4.03v-2.02m0-4.02v-2m0-4.03v-2m0-4.04v-2m0-4.03v-2.02m0-4.02v-2m0-4.04v-2m0-4.04v-1h1" stroke="#333" fill="none"/><use xlink:href="#a" transform="matrix(1,0,0,1,-20,-379.7235410437652) translate(20.674999999999997 152.8)"/><use xlink:href="#b" transform="matrix(1,0,0,1,-20,-379.7235410437652) translate(41.05 174.4)"/><path d="M105.75-379.72H-12a8 8 0 0 1-8-8v-139.92a8 8 0 0 1 8-8h117.75z" fill="#fff"/><path d="M100.84-379.72h-1.96m-3.92 0H93m-3.93 0H87.1m-3.92 0h-1.96m-3.93 0h-1.97m-3.92 0h-1.96m-3.92 0h-1.96m-3.93 0h-1.96m-3.93 0h-1.96m-3.92 0H45.9m-3.93 0H40m-3.92 0h-1.96m-3.93 0h-1.97m-3.92 0h-1.96m-3.92 0h-1.96m-3.93 0h-1.96m-3.93 0H4.68m-3.92 0H-1.2m-3.93 0H-7.1m-3.92 0H-12l-1.04-.1m-3.82-1.57l-.8-.67-.68-.8m-1.58-3.8l-.08-1.05v-1.02m0-4.05v-2.02m0-4.06v-2.02m0-4.06V-407m0-4.04v-2.03m0-4.06v-2.02m0-4.06v-2.04m0-4.05v-2.02m0-4.06v-2.03m0-4.06v-2.03m0-4.05v-2.02m0-4.06v-2.03m0-4.05v-2.04m0-4.06v-2.02m0-4.06v-2.03m0-4.06V-480m0-4.05v-2.02m0-4.06v-2.03m0-4.05v-2.04m0-4.06v-2.02m0-4.06v-2.03m0-4.06v-2.03m0-4.05v-2.03m0-4.05v-1l.08-1.06m1.58-3.8l.68-.8.8-.68m3.82-1.58l1.04-.08h.98m3.93 0h1.97m3.92 0H.75m3.92 0h1.96m3.93 0h1.96m3.93 0h1.96m3.92 0h1.97m3.93 0h1.96m3.92 0h1.96m3.93 0h1.97m3.92 0h1.96m3.92 0h1.96m3.93 0h1.96m3.93 0h1.96m3.92 0h1.97m3.93 0h1.96m3.92 0h1.96m3.93 0h1.97m3.92 0h1.96m3.92 0h1.96m3.93 0h.98v1m0 4v2m0 4v2m0 4v2m0 3.98v2m0 4v2m0 4v2m0 4v2m0 4v2m0 4v2m0 4v2m0 3.98v2m0 4v2m0 4v2m0 4v2m0 4v2m0 4v2m0 3.98v2m0 4v2m0 4v2m0 4v2m0 4v2m0 4v2m0 4v2m0 3.98v2m0 4v2m0 4v1h-.98" stroke="#333" fill="none"/><path d="M105.75-535.64h1436.1a8 8 0 0 1 8 8v139.92a8 8 0 0 1-8 8H105.75z" fill="none"/><path d="M110.76-535.64h2m4 0h2m4.02 0h2m4 0h2m4 0h2m4.02 0h2m4 0h2m4.02 0h2m4 0h2m4.02 0h2m4 0h2m4 0h2.02m4 0h2m4 0h2m4.02 0h2m4 0h2m4.02 0h2m4 0h2m4 0h2.02m4 0h2m4 0h2.02m4 0h2m4 0h2m4.02 0h2m4 0h2m4.02 0h2m4 0h2m4 0H275m4 0h2m4 0h2m4.02 0h2m4 0h2m4.02 0h2m4 0h2m4.02 0h2m4 0h2m4 0h2.02m4 0h2m4 0h2m4.02 0h2m4 0h2m4.02 0h2m4 0h2m4 0h2.02m4 0h2m4 0h2.02m4 0h2m4 0h2m4.02 0h2m4 0h2m4.02 0h2m4 0h2m4 0h2.02m4 0h2m4 0h2m4.02 0h2m4 0h2m4.02 0h2m4 0h2m4.02 0h2m4 0h2m4 0h2.02m4 0h2m4 0h2m4.02 0h2m4 0h2m4.02 0h2m4 0h2m4 0h2.02m4 0h2m4 0h2m4.02 0h2m4 0h2m4.02 0h2m4 0h2m4.02 0h2m4 0h2m4 0h2.02m4 0h2m4 0h2m4.02 0h2m4 0h2m4.02 0h2m4 0h2m4 0h2.02m4 0h2m4 0h2.02m4 0h2m4 0h2m4.02 0h2m4 0h2m4.02 0h2m4 0h2m4 0h2.02m4 0h2m4 0h2m4.02 0h2m4 0h2m4.02 0h2m4 0h2m4.02 0h2m4 0h2m4 0h2.02m4 0h2m4 0h2m4.02 0h2m4 0h2m4.02 0h2m4 0h2m4 0h2.02m4 0h2m4 0h2.02m4 0h2m4 0h2m4.02 0h2m4 0h2m4.02 0h2m4 0h2m4 0h2.02m4 0h2m4 0h2.02m4 0h2m4 0h2m4.02 0h2m4 0h2m4.02 0h2m4 0h2m4 0h2.02m4 0h2m4 0h2m4.02 0h2m4 0h2m4.02 0h2m4 0h2m4 0h2.02m4 0h2m4 0h2m4.02 0h2m4 0h2m4.02 0h2m4 0h2m4.02 0h2m4 0h2m4 0h2.02m4 0h2m4 0h2m4.02 0h2m4 0h2m4.02 0h2m4 0h2m4.02 0h2m4 0h2m4 0h2.02m4 0h2m4 0h2m4.02 0h2m4 0h2m4.02 0h2m4 0h2m4 0h2.02m4 0h2m4 0h2m4.02 0h2m4 0h2m4.02 0h2m4 0h2m4.02 0h2m4 0h2m4 0h2.02m4 0h2m4 0h2m4.02 0h2m4 0h2m4.02 0h2m4 0h2m4.02 0h2m4 0h2m4 0h2.02m4 0h2m4 0h2m4.02 0h2m4 0h2m4.02 0h2m4 0h2m4 0h2.02m4 0h2m4 0h2m4.02 0h2m4 0h2m4.02 0h2m4 0h2m4.02 0h2m4 0h2m4 0h2.02m4 0h2m4 0h2m4.02 0h2m4 0h2m4.02 0h2m4 0h2m4.02 0h2m4 0h2m4 0h2.02m4 0h2m4 0h2m4.02 0h2m4 0h2m4.02 0h2m4 0h2m4 0h2.02m4 0h2m4 0h2m4.02 0h2m4 0h2m4.02 0h2m4 0h2m4 0h2.02m4 0h2m4 0h2.02m4 0h2m4 0h2m4.02 0h2m4 0h2m4.02 0h2m4 0h2m4 0h2.02m4 0h2m4 0h2.02m4 0h2m4 0h2m4.02 0h2m4 0h2m4.02 0h2m4 0h2m4 0h2.02m4 0h2m4 0h2m4.02 0h2m4 0h1l1.05.08m3.8 1.58l.8.68.7.8m1.57 3.8l.08 1.06v1m0 4.06v2.03m0 4.06v2.04m0 4.05v2.02m0 4.06v2.02m0 4.06v2.03m0 4.04v2.03m0 4.06v2.02m0 4.06v2.04m0 4.05v2.02m0 4.06v2.02m0 4.06v2.03m0 4.04v2.03m0 4.06v2.02m0 4.06v2.04m0 4.05v2.02m0 4.06v2.03m0 4.06v2.03m0 4.05v2.02m0 4.06v2.03m0 4.05v2.04m0 4.06v2.02m0 4.06v2.03m0 4.06v1.02l-.08 1.04m-1.58 3.82l-.7.8-.8.67m-3.8 1.6l-1.05.08h-1m-4 0h-2m-4.02 0h-2m-4 0h-2m-4 0h-2.02m-4 0h-2m-4 0h-2m-4 0h-2m-4.02 0h-2m-4 0h-2m-4.02 0h-2m-4 0h-2m-4 0h-2.02m-4 0h-2m-4 0h-2m-4.02 0h-2m-4 0h-2m-4.02 0h-2m-4 0h-2m-4.02 0h-2m-4 0h-2m-4 0h-2.02m-4 0h-2m-4 0h-2m-4.02 0h-2m-4 0h-2m-4.02 0h-2m-4 0h-2m-4 0h-2.02m-4 0h-2m-4 0h-2m-4.02 0h-2m-4 0h-2m-4.02 0h-2m-4 0h-2m-4.02 0h-2m-4 0h-2m-4 0h-2.02m-4 0h-2m-4 0h-2m-4.02 0h-2m-4 0h-2m-4.02 0h-2m-4 0h-2m-4.02 0h-2m-4 0h-2m-4 0h-2.02m-4 0h-2m-4 0h-2m-4.02 0h-2m-4 0h-2m-4.02 0h-2m-4 0h-2m-4 0h-2.02m-4 0h-2m-4 0h-2.02m-4 0h-2m-4 0h-2m-4.02 0h-2m-4 0h-2m-4.02 0h-2m-4 0h-2m-4 0h-2.02m-4 0h-2m-4 0h-2m-4.02 0h-2m-4 0h-2m-4.02 0h-2m-4 0h-2m-4.02 0h-2m-4 0h-2m-4 0h-2.02m-4 0h-2m-4 0h-2m-4.02 0h-2m-4 0h-2m-4.02 0h-2m-4 0h-2m-4 0h-2.02m-4 0h-2m-4 0h-2m-4.02 0h-2m-4 0h-2m-4.02 0h-2m-4 0h-2m-4 0h-2.02m-4 0h-2m-4 0h-2.02m-4 0h-2m-4 0h-2m-4.02 0h-2m-4 0h-2m-4.02 0h-2m-4 0h-2m-4 0H976m-4 0h-2m-4 0h-2m-4.02 0h-2m-4 0h-2m-4.02 0h-2m-4 0h-2m-4.02 0h-2m-4 0h-2m-4 0h-2.02m-4 0h-2m-4 0h-2m-4.02 0h-2m-4 0h-2m-4.02 0h-2m-4 0h-2m-4 0h-2.02m-4 0h-2m-4 0h-2.02m-4 0h-2m-4 0h-2m-4.02 0h-2m-4 0h-2m-4.02 0h-2m-4 0h-2m-4 0h-2.02m-4 0h-2m-4 0h-2m-4.02 0h-2m-4 0h-2m-4.02 0h-2m-4 0h-2m-4.02 0h-2m-4 0h-2m-4 0h-2.02m-4 0h-2m-4 0h-2m-4.02 0h-2m-4 0h-2m-4.02 0h-2m-4 0h-2m-4 0h-2.02m-4 0h-2m-4 0h-2m-4.02 0h-2m-4 0h-2m-4.02 0h-2m-4 0h-2m-4.02 0h-2m-4 0h-2m-4 0h-2.02m-4 0h-2m-4 0h-2m-4.02 0h-2m-4 0h-2m-4.02 0h-2m-4 0h-2m-4 0h-2.02m-4 0h-2m-4 0h-2.02m-4 0h-2m-4 0h-2m-4.02 0h-2m-4 0h-2m-4.02 0h-2m-4 0h-2m-4 0h-2.02m-4 0h-2m-4 0h-2.02m-4 0h-2m-4 0h-2m-4.02 0h-2m-4 0h-2m-4.02 0h-2m-4 0h-2m-4 0h-2.02m-4 0h-2m-4 0h-2m-4.02 0h-2m-4 0h-2m-4.02 0h-2m-4 0h-2m-4 0h-2.02m-4 0h-2m-4 0h-2m-4.02 0h-2m-4 0h-2m-4.02 0h-2m-4 0h-2m-4.02 0h-2m-4 0h-2m-4 0h-2.02m-4 0h-2m-4 0h-2.02m-4 0h-2m-4 0h-2m-4.02 0h-2m-4 0h-2m-4.02 0h-2m-4 0h-2m-4 0h-2.02m-4 0h-2m-4 0h-2m-4.02 0h-2m-4 0h-2m-4.02 0h-2m-4 0h-2m-4.02 0h-2m-4 0h-2m-4 0h-2m-4.02 0h-2m-4 0h-2m-4.02 0h-2m-4 0h-2m-4.02 0h-2m-4 0h-2m-4 0H279m-4 0h-2m-4 0h-2m-4.02 0h-2m-4 0h-2m-4.02 0h-2m-4 0h-2m-4.02 0h-2m-4 0h-2m-4 0h-2.02m-4 0h-2m-4 0h-2m-4.02 0h-2m-4 0h-2m-4.02 0h-2m-4 0h-2m-4 0h-2.02m-4 0h-2m-4 0h-2.02m-4 0h-2m-4 0h-2m-4.02 0h-2m-4 0h-2m-4.02 0h-2m-4 0h-2m-4 0h-2.02m-4 0h-2m-4 0h-2m-4.02 0h-2m-4 0h-1v-1m0-4v-2m0-4v-2m0-4v-2m0-4v-2m0-4v-2m0-4v-1.98m0-4v-2m0-4v-2m0-4v-2m0-4v-2m0-4v-2m0-4v-2m0-3.98v-2m0-4v-2m0-4v-2m0-4v-2m0-4v-2m0-4v-2m0-4v-2m0-3.98v-2m0-4v-2m0-4v-2m0-4v-2m0-4v-2m0-4v-2m0-4v-.98h1" stroke="#333" fill="none"/><use xlink:href="#c" transform="matrix(1,0,0,1,-20,-535.6444125802507) translate(46.525 60)"/><use xlink:href="#d" transform="matrix(1,0,0,1,-20,-535.6444125802507) translate(8.124999999999993 81.60000000000001)"/><use xlink:href="#e" transform="matrix(1,0,0,1,-20,-535.6444125802507) translate(31 103.20000000000002)"/><path d="M549.6-327.64a8 8 0 0 1 8-8h229.8a8 8 0 0 1 8 8v99.92a8 8 0 0 1-8 8H557.6a8 8 0 0 1-8-8z" stroke="#000" stroke-opacity="0" fill="#c3f7c8"/><use xlink:href="#f" transform="matrix(1,0,0,1,558.6131986196037,-326.6439370834183) translate(64.67901234567903 39.21527777777777)"/><use xlink:href="#g" transform="matrix(1,0,0,1,558.6131986196037,-326.6439370834183) translate(48.62962962962963 65.88194444444444)"/><use xlink:href="#h" transform="matrix(1,0,0,1,558.6131986196037,-326.6439370834183) translate(122.58024691358024 65.88194444444444)"/><use xlink:href="#i" transform="matrix(1,0,0,1,558.6131986196037,-326.6439370834183) translate(167.02469135802468 65.88194444444444)"/><path d="M837.94-327.64a8 8 0 0 1 8-8h229.8a8 8 0 0 1 8 8v99.92a8 8 0 0 1-8 8h-229.8a8 8 0 0 1-8-8z" stroke="#000" stroke-opacity="0" fill="#c3f7c8"/><use xlink:href="#f" transform="matrix(1,0,0,1,846.9382389618899,-326.644133348121) translate(64.67901234567903 39.21527777777777)"/><use xlink:href="#g" transform="matrix(1,0,0,1,846.9382389618899,-326.644133348121) translate(48.62962962962963 65.88194444444444)"/><use xlink:href="#h" transform="matrix(1,0,0,1,846.9382389618899,-326.644133348121) translate(122.58024691358024 65.88194444444444)"/><use xlink:href="#j" transform="matrix(1,0,0,1,846.9382389618899,-326.644133348121) translate(167.02469135802468 65.88194444444444)"/><path d="M261.3-327.64a8 8 0 0 1 8-8h229.78a8 8 0 0 1 8 8v99.92a8 8 0 0 1-8 8h-229.8a8 8 0 0 1-8-8z" stroke="#000" stroke-opacity="0" fill="#cfe4ff"/><use xlink:href="#f" transform="matrix(1,0,0,1,270.28815827731796,-326.644133348121) translate(64.67901234567903 39.21527777777777)"/><use xlink:href="#g" transform="matrix(1,0,0,1,270.28815827731796,-326.644133348121) translate(48.62962962962963 65.88194444444444)"/><use xlink:href="#h" transform="matrix(1,0,0,1,270.28815827731796,-326.644133348121) translate(122.58024691358024 65.88194444444444)"/><use xlink:href="#k" transform="matrix(1,0,0,1,270.28815827731796,-326.644133348121) translate(167.02469135802468 65.88194444444444)"/><path d="M549.6-507.64a8 8 0 0 1 8-8h229.8a8 8 0 0 1 8 8v99.92a8 8 0 0 1-8 8H557.6a8 8 0 0 1-8-8z" stroke="#000" stroke-opacity="0" fill="#fcfcca"/><use xlink:href="#l" transform="matrix(1,0,0,1,558.6131986196038,-506.6444125802507) translate(16.006172839506192 39.21527777777778)"/><use xlink:href="#m" transform="matrix(1,0,0,1,558.6131986196038,-506.6444125802507) translate(59.80246913580247 65.88194444444446)"/><use xlink:href="#n" transform="matrix(1,0,0,1,558.6131986196038,-506.6444125802507) translate(104.24691358024691 65.88194444444446)"/><path d="M672.5-336.14v-63.08" stroke="#333" fill="none"/><path d="M672.98-335.64h-.95v-.52h.95zM672.98-399.2h-.95v-.52h.95z" stroke="#333" stroke-width=".05" fill="#333"/><path d="M578.3-399.57L384.67-335.8" stroke="#333" fill="none"/><path d="M578.44-399.1l-.2-.62h2.06zM384.72-335.64h-2.06l1.86-.62z" stroke="#333" stroke-width=".05" fill="#333"/><path d="M749.8-399.58l210.56 63.8" stroke="#333" fill="none"/><path d="M749.68-399.12l-2-.6h2.2zM962.47-335.64h-2.17l.18-.6z" stroke="#333" stroke-width=".05" fill="#333"/><path d="M261.3-327.64a8 8 0 0 1 8-8h97.16a8 8 0 0 1 8 8v13.6a8 8 0 0 1-8 8H269.3a8 8 0 0 1-8-8z" fill="none"/><use xlink:href="#o" transform="matrix(1,0,0,1,261.28815827731796,-335.6439370834183) translate(9.577160493827158 18.11111111111111)"/><use xlink:href="#p" transform="matrix(1,0,0,1,261.28815827731796,-335.6439370834183) translate(67.30555555555556 18.11111111111111)"/><path d="M838.95-327.64a8 8 0 0 1 8-8H968.8a8 8 0 0 1 8 8v13.6a8 8 0 0 1-8 8H846.96a8 8 0 0 1-8-8z" fill="none"/><use xlink:href="#q" transform="matrix(1,0,0,1,838.9449376506709,-335.64432961282364) translate(11.141975308641975 18.11111111111111)"/><use xlink:href="#p" transform="matrix(1,0,0,1,838.9449376506709,-335.64432961282364) translate(89.74074074074073 18.11111111111111)"/><path d="M496.63-159.27a8 8 0 0 1 8-8h89.97a8 8 0 0 1 8 8v49.5a8 8 0 0 1-8 8h-89.97a8 8 0 0 1-8-8z" stroke="#000" stroke-opacity="0" fill="#8ccd92"/><use xlink:href="#r" transform="matrix(1,0,0,1,505.6301390243649,-158.27135699064735) translate(44 17.22222222222222)"/><use xlink:href="#s" transform="matrix(1,0,0,1,505.6301390243649,-158.27135699064735) translate(15.358024691358022 38.55555555555556)"/><use xlink:href="#t" transform="matrix(1,0,0,1,505.6301390243649,-158.27135699064735) translate(50.91358024691358 38.55555555555556)"/><path d="M620.26-159.27a8 8 0 0 1 8-8h89.96a8 8 0 0 1 8 8v49.5a8 8 0 0 1-8 8h-89.96a8 8 0 0 1-8-8z" stroke="#000" stroke-opacity="0" fill="#8ccd92"/><use xlink:href="#r" transform="matrix(1,0,0,1,629.2572775170181,-158.27135699064735) translate(44 17.22222222222222)"/><use xlink:href="#s" transform="matrix(1,0,0,1,629.2572775170181,-158.27135699064735) translate(15.358024691358022 38.55555555555556)"/><use xlink:href="#u" transform="matrix(1,0,0,1,629.2572775170181,-158.27135699064735) translate(50.91358024691358 38.55555555555556)"/><path d="M743.88-159.27a8 8 0 0 1 8-8h89.97a8 8 0 0 1 8 8v49.5a8 8 0 0 1-8 8h-89.97a8 8 0 0 1-8-8z" stroke="#000" stroke-opacity="0" fill="#8ccd92"/><use xlink:href="#r" transform="matrix(1,0,0,1,752.8844160096713,-158.27135699064735) translate(44 17.22222222222222)"/><use xlink:href="#s" transform="matrix(1,0,0,1,752.8844160096713,-158.27135699064735) translate(14.888888888888886 38.55555555555556)"/><use xlink:href="#v" transform="matrix(1,0,0,1,752.8844160096713,-158.27135699064735) translate(50.44444444444444 38.55555555555556)"/><path d="M672.5-219.22v51.45" stroke="#333" fill="none"/><path d="M672.98-219.2h-.95v-.52h.95zM672.98-167.27h-.95v-.5h.95z" stroke="#333" stroke-width=".05" fill="#333"/><path d="M867.5-159.27a8 8 0 0 1 8-8h89.98a8 8 0 0 1 8 8v49.5a8 8 0 0 1-8 8H875.5a8 8 0 0 1-8-8z" stroke="#000" stroke-opacity="0" fill="#8ccd92"/><use xlink:href="#r" transform="matrix(1,0,0,1,876.5115545023244,-158.27135699064735) translate(44 17.22222222222222)"/><use xlink:href="#s" transform="matrix(1,0,0,1,876.5115545023244,-158.27135699064735) translate(15.358024691358022 38.55555555555556)"/><use xlink:href="#w" transform="matrix(1,0,0,1,876.5115545023244,-158.27135699064735) translate(50.91358024691358 38.55555555555556)"/><path d="M991.14-159.27a8 8 0 0 1 8-8h89.97a8 8 0 0 1 8 8v49.5a8 8 0 0 1-8 8h-89.96a8 8 0 0 1-8-8z" stroke="#000" stroke-opacity="0" fill="#8ccd92"/><use xlink:href="#r" transform="matrix(1,0,0,1,1000.1386929949775,-158.27135699064735) translate(44 17.22222222222222)"/><use xlink:href="#s" transform="matrix(1,0,0,1,1000.1386929949775,-158.27135699064735) translate(15.358024691358022 38.55555555555556)"/><use xlink:href="#x" transform="matrix(1,0,0,1,1000.1386929949775,-158.27135699064735) translate(50.91358024691358 38.55555555555556)"/><path d="M1114.77-159.27a8 8 0 0 1 8-8h89.96a8 8 0 0 1 8 8v49.5a8 8 0 0 1-8 8h-89.96a8 8 0 0 1-8-8z" stroke="#000" stroke-opacity="0" fill="#8ccd92"/><use xlink:href="#r" transform="matrix(1,0,0,1,1123.765831487631,-158.27135699064735) translate(44 17.22222222222222)"/><use xlink:href="#s" transform="matrix(1,0,0,1,1123.765831487631,-158.27135699064735) translate(14.888888888888886 38.55555555555556)"/><use xlink:href="#y" transform="matrix(1,0,0,1,1123.765831487631,-158.27135699064735) translate(50.44444444444444 38.55555555555556)"/><path d="M549.6-327.64a8 8 0 0 1 8-8h124.46a8 8 0 0 1 8 8v13.6a8 8 0 0 1-8 8H557.6a8 8 0 0 1-8-8z" fill="none"/><use xlink:href="#q" transform="matrix(1,0,0,1,549.6131986196037,-335.64432961282364) translate(12.641975308641975 18.11111111111111)"/><use xlink:href="#p" transform="matrix(1,0,0,1,549.6131986196037,-335.64432961282364) translate(91.24074074074073 18.11111111111111)"/><path d="M120.73-159.27a8 8 0 0 1 8-8h89.97a8 8 0 0 1 8 8v49.5a8 8 0 0 1-8 8h-89.97a8 8 0 0 1-8-8z" stroke="#000" stroke-opacity="0" fill="#6caaf0"/><use xlink:href="#r" transform="matrix(1,0,0,1,129.73195019561922,-158.27135699064735) translate(44 17.22222222222222)"/><use xlink:href="#s" transform="matrix(1,0,0,1,129.73195019561922,-158.27135699064735) translate(15.358024691358022 38.55555555555556)"/><use xlink:href="#z" transform="matrix(1,0,0,1,129.73195019561922,-158.27135699064735) translate(50.91358024691358 38.55555555555556)"/><path d="M244.36-159.27a8 8 0 0 1 8-8h89.96a8 8 0 0 1 8 8v49.5a8 8 0 0 1-8 8h-89.96a8 8 0 0 1-8-8z" stroke="#000" stroke-opacity="0" fill="#6caaf0"/><use xlink:href="#r" transform="matrix(1,0,0,1,253.35908868827244,-158.27135699064735) translate(44 17.22222222222222)"/><use xlink:href="#s" transform="matrix(1,0,0,1,253.35908868827244,-158.27135699064735) translate(15.358024691358022 38.55555555555556)"/><use xlink:href="#A" transform="matrix(1,0,0,1,253.35908868827244,-158.27135699064735) translate(50.91358024691358 38.55555555555556)"/><path d="M368-159.27a8 8 0 0 1 8-8h89.95a8 8 0 0 1 8 8v49.5a8 8 0 0 1-8 8H376a8 8 0 0 1-8-8z" stroke="#000" stroke-opacity="0" fill="#6caaf0"/><use xlink:href="#r" transform="matrix(1,0,0,1,376.98622718092565,-158.27135699064735) translate(44 17.22222222222222)"/><use xlink:href="#s" transform="matrix(1,0,0,1,376.98622718092565,-158.27135699064735) translate(14.888888888888886 38.55555555555556)"/><use xlink:href="#B" transform="matrix(1,0,0,1,376.98622718092565,-158.27135699064735) translate(50.44444444444444 38.55555555555556)"/><path d="M420.96-219.22l.72 51.45" stroke="#333" fill="none"/><path d="M421.44-219.22l-.95.02-.02-.52h.95zM422.16-167.27h-.95v-.5l.95-.02z" stroke="#333" stroke-width=".05" fill="#333"/><path d="M383.75-219.47l-85.98 51.94" stroke="#333" fill="none"/><path d="M384-219.05l-.42-.67h1.52zM297.94-167.27h-1.52l1.12-.67z" stroke="#333" stroke-width=".05" fill="#333"/><path d="M174.2-167.42l164.58-52.15" stroke="#333" fill="none"/><path d="M174.25-167.27h-2.1l1.9-.6zM338.9-219.12l-.18-.6h2.1z" stroke="#333" stroke-width=".05" fill="#333"/><path d="M920.5-167.77l-.73-51.45" stroke="#333" fill="none"/><path d="M920.97-167.27h-.95v-.5l.94-.02zM920.25-219.22l-.96.02v-.52h.94z" stroke="#333" stroke-width=".05" fill="#333"/><path d="M1043.7-167.54l-82.44-51.92" stroke="#333" fill="none"/><path d="M1045-167.27h-1.48l.42-.68zM961-219.05l-1.06-.67h1.5z" stroke="#333" stroke-width=".05" fill="#333"/><path d="M1167.27-167.42l-164.52-52.15" stroke="#333" fill="none"/><path d="M1169.32-167.27h-2.1l.18-.6zM1002.6-219.12l-1.9-.6h2.1z" stroke="#333" stroke-width=".05" fill="#333"/><path d="M796.45-167.55l-76.43-51.9" stroke="#333" fill="none"/><path d="M797.7-167.27h-1.45l.46-.68zM719.76-219.04l-1-.68h1.46z" stroke="#333" stroke-width=".05" fill="#333"/><path d="M550.02-167.56L625-219.44" stroke="#333" fill="none"/><path d="M550.24-167.27h-1.46l1-.68zM625.26-219.04l-.47-.68h1.45z" stroke="#333" stroke-width=".05" fill="#333"/><path d="M1283-482.6h-19.66c-1.8 0-3.34 1.48-3.34 3.28v13.66c0 1.8 1.53 3.14 3.47 3.14h3.87v24.38c0 3.2 1.94 5.4 4.7 5.4 2.5 0 4.42-1.96 4.7-4.55.7-.14 1.27-.14 1.27-.14s.14-2.5 0-3.34c-.15-.8 1.54-1.8 1.54-1.8s.15-1.34 0-1.5c-1.53-.7-2.37-1.4-2.8-1.94v-1.64c.43-.55.98-.95 1.27-1.25.54-.7 1.8-2.6 1.8-2.6s-1.37-1.95-1.8-2.35c-.7-.84-1.1-1.64-1.25-2.34v-1.24c.42-2.8 3.6-5.13 3.6-5.13h-3.6 6.4c1.62 0 3.14-1.35 3.14-3.14v-13.62c-.14-1.8-1.5-3.3-3.3-3.3zm-11.38 45.16c0 .85-.13 1.8-1.1 1.8-.95 0-1.08-.95-1.08-1.8v-22.6c0-.83.26-1.78 1.08-1.78.84 0 1.1.94 1.1 1.8v22.58zm1.55-36.9c-1.65 0-3.05-1.4-3.05-3.04 0-1.64 1.37-3.04 3.05-3.04 1.63 0 3.05 1.35 3.05 3.04 0 1.65-1.42 3.04-3.05 3.04z" stroke="#000" stroke-opacity="0" fill="#fcce14"/><path d="M1283-160h-19.66c-1.8 0-3.34 1.48-3.34 3.25v13.5c0 1.77 1.53 3.1 3.47 3.1h3.87v24.1c0 3.14 1.94 5.3 4.7 5.3 2.5 0 4.42-1.9 4.7-4.47.7-.15 1.27-.15 1.27-.15s.14-2.46 0-3.3c-.15-.8 1.54-1.77 1.54-1.77s.15-1.33 0-1.48c-1.53-.7-2.37-1.38-2.8-1.92v-1.63c.43-.54.98-.94 1.27-1.23.54-.7 1.8-2.56 1.8-2.56s-1.37-1.92-1.8-2.32c-.7-.83-1.1-1.62-1.25-2.3v-1.24c.42-2.76 3.6-5.08 3.6-5.08h-3.6 6.4c1.62 0 3.14-1.33 3.14-3.1v-13.45c-.14-1.77-1.5-3.25-3.3-3.25zm-11.38 44.63c0 .84-.13 1.77-1.1 1.77-.95 0-1.08-.93-1.08-1.77v-22.3c0-.85.26-1.8 1.08-1.8.84 0 1.1.95 1.1 1.78v22.33zm1.55-36.45c-1.65 0-3.05-1.38-3.05-3 0-1.63 1.37-3 3.05-3 1.63 0 3.05 1.32 3.05 3 0 1.62-1.42 3-3.05 3z" stroke="#000" stroke-opacity="0" fill="#004a40"/><path d="M80-159.27a8 8 0 0 1 8-8h97.17a8 8 0 0 1 8 8v13.6a8 8 0 0 1-8 8H88a8 8 0 0 1-8-8z" fill="none"/><g><use xlink:href="#C" transform="matrix(1,0,0,1,80,-167.27135699064735) translate(45.888888888888914 17.666666666666664)"/><use xlink:href="#D" transform="matrix(1,0,0,1,80,-167.27135699064735) translate(106.5925925925926 17.666666666666664)"/></g><path d="M205.02-159.27a8 8 0 0 1 8-8h97.17a8 8 0 0 1 8 8v13.6a8 8 0 0 1-8 8H213a8 8 0 0 1-8-8z" fill="none"/><g><use xlink:href="#C" transform="matrix(1,0,0,1,205.0207218343583,-167.27135699064735) translate(45.888888888888914 17.666666666666664)"/><use xlink:href="#E" transform="matrix(1,0,0,1,205.0207218343583,-167.27135699064735) translate(106.5925925925926 17.666666666666664)"/></g><path d="M328.65-159.27a8 8 0 0 1 8-8h97.17a8 8 0 0 1 8 8v13.6a8 8 0 0 1-8 8h-97.17a8 8 0 0 1-8-8z" fill="none"/><g><use xlink:href="#C" transform="matrix(1,0,0,1,328.64786032701153,-167.27135699064735) translate(45.888888888888914 17.666666666666664)"/><use xlink:href="#F" transform="matrix(1,0,0,1,328.64786032701153,-167.27135699064735) translate(106.5925925925926 17.666666666666664)"/></g><path d="M455.84-159.27a8 8 0 0 1 8-8H561a8 8 0 0 1 8 8v13.6a8 8 0 0 1-8 8h-97.16a8 8 0 0 1-8-8z" fill="none"/><g><use xlink:href="#C" transform="matrix(1,0,0,1,455.8384985378062,-167.27135699064735) translate(45.888888888888914 17.666666666666664)"/><use xlink:href="#D" transform="matrix(1,0,0,1,455.8384985378062,-167.27135699064735) translate(106.5925925925926 17.666666666666664)"/></g><path d="M579.47-159.27a8 8 0 0 1 8-8h97.16a8 8 0 0 1 8 8v13.6a8 8 0 0 1-8 8h-97.16a8 8 0 0 1-8-8z" fill="none"/><g><use xlink:href="#C" transform="matrix(1,0,0,1,579.4656370304592,-167.27135699064735) translate(45.888888888888914 17.666666666666664)"/><use xlink:href="#E" transform="matrix(1,0,0,1,579.4656370304592,-167.27135699064735) translate(106.5925925925926 17.666666666666664)"/></g><path d="M703.1-159.27a8 8 0 0 1 8-8h97.16a8 8 0 0 1 8 8v13.6a8 8 0 0 1-8 8H711.1a8 8 0 0 1-8-8z" fill="none"/><g><use xlink:href="#C" transform="matrix(1,0,0,1,703.0927755231123,-167.27135699064735) translate(45.888888888888914 17.666666666666664)"/><use xlink:href="#F" transform="matrix(1,0,0,1,703.0927755231123,-167.27135699064735) translate(106.5925925925926 17.666666666666664)"/></g><path d="M826.72-159.27a8 8 0 0 1 8-8h97.17a8 8 0 0 1 8 8v13.6a8 8 0 0 1-8 8H834.7a8 8 0 0 1-8-8z" fill="none"/><g><use xlink:href="#C" transform="matrix(1,0,0,1,826.7199140157654,-167.27135699064735) translate(45.888888888888914 17.666666666666664)"/><use xlink:href="#D" transform="matrix(1,0,0,1,826.7199140157654,-167.27135699064735) translate(106.5925925925926 17.666666666666664)"/></g><path d="M951.74-159.27a8 8 0 0 1 8-8h97.17a8 8 0 0 1 8 8v13.6a8 8 0 0 1-8 8h-97.16a8 8 0 0 1-8-8z" fill="none"/><g><use xlink:href="#C" transform="matrix(1,0,0,1,951.7406358501239,-167.27135699064735) translate(45.888888888888914 17.666666666666664)"/><use xlink:href="#E" transform="matrix(1,0,0,1,951.7406358501239,-167.27135699064735) translate(106.5925925925926 17.666666666666664)"/></g><path d="M1075.37-159.27a8 8 0 0 1 8-8h97.17a8 8 0 0 1 8 8v13.6a8 8 0 0 1-8 8h-97.17a8 8 0 0 1-8-8z" fill="none"/><g><use xlink:href="#C" transform="matrix(1,0,0,1,1075.367774342777,-167.27135699064735) translate(45.888888888888914 17.666666666666664)"/><use xlink:href="#F" transform="matrix(1,0,0,1,1075.367774342777,-167.27135699064735) translate(106.5925925925926 17.666666666666664)"/></g><g><path d="M1306.92-129.74l-8.5-7.1c-.78-.64-1.95-.6-2.56.14l-4.62 5.55c-.6.72-.4 1.82.43 2.52l1.67 1.4-8.26 9.9c-1.08 1.28-.98 2.88.2 3.87 1.1.9 2.58.8 3.58-.14.35.18.6.4.6.4s.9-.97 1.13-1.36c.2-.38 1.26-.18 1.26-.18s.52-.5.5-.6c-.42-.84-.55-1.43-.54-1.8l.55-.67c.37-.08.75-.04.97-.06.47-.1 1.65-.4 1.65-.4s.06-1.3 0-1.6c0-.6.1-1.07.26-1.4l.42-.52c1.13-.98 3.3-.78 3.3-.78l-1.56-1.3 2.77 2.3c.7.6 1.8.6 2.4-.13l4.62-5.5c.55-.8.47-1.9-.3-2.54zm-20.22 14.23c-.3.33-.67.67-1.1.32-.4-.34-.13-.77.15-1.12l7.65-9.16c.3-.35.73-.64 1.08-.34.36.3.15.78-.13 1.12l-7.65 9.17zm13.17-14.42c-.72-.6-.85-1.67-.3-2.34.57-.67 1.63-.74 2.36-.13.7.6.86 1.65.28 2.34-.54.67-1.63.72-2.33.14z" stroke="#000" stroke-opacity="0" fill="#00c2a8"/></g><path d="M1283-306.05h-19.66c-1.8 0-3.34 1.5-3.34 3.3v13.65c0 1.8 1.53 3.14 3.47 3.14h3.87v24.4c0 3.18 1.94 5.37 4.7 5.37 2.5 0 4.42-1.93 4.7-4.53.7-.15 1.27-.15 1.27-.15s.14-2.5 0-3.34c-.15-.8 1.54-1.8 1.54-1.8s.15-1.34 0-1.5c-1.53-.7-2.37-1.38-2.8-1.93v-1.65c.43-.55.98-.94 1.27-1.24.54-.7 1.8-2.6 1.8-2.6s-1.37-1.94-1.8-2.34c-.7-.85-1.1-1.65-1.25-2.34v-1.25c.42-2.8 3.6-5.14 3.6-5.14h-3.6 6.4c1.62 0 3.14-1.35 3.14-3.15v-13.6c-.14-1.8-1.5-3.3-3.3-3.3zm-11.38 45.17c0 .85-.13 1.8-1.1 1.8-.95 0-1.08-.95-1.08-1.8v-22.58c0-.85.26-1.8 1.08-1.8.84 0 1.1.95 1.1 1.8v22.58zm1.55-36.9c-1.65 0-3.05-1.4-3.05-3.04 0-1.64 1.37-3.04 3.05-3.04 1.63 0 3.05 1.35 3.05 3.05 0 1.63-1.42 3.03-3.05 3.03z" stroke="#000" stroke-opacity="0" fill="#00c2a8"/><g><path d="M1307-275.38l-8.55-7.14c-.78-.65-1.96-.6-2.57.14l-4.66 5.58c-.6.73-.4 1.83.44 2.54l1.68 1.4-8.32 9.96c-1.08 1.3-1 2.9.2 3.9 1.1.9 2.6.82 3.6-.14.35.2.6.4.6.4s.9-.97 1.14-1.37c.2-.4 1.28-.2 1.28-.2s.52-.48.5-.6c-.42-.84-.55-1.43-.54-1.8l.56-.68c.37-.07.75-.03.97-.05.47-.1 1.66-.4 1.66-.4s.06-1.3.02-1.6c-.02-.62.08-1.1.25-1.43l.42-.5c1.13-1 3.3-.8 3.3-.8l-1.56-1.3 2.78 2.3c.7.6 1.83.6 2.44-.13l4.64-5.55c.56-.78.47-1.9-.3-2.53zm-20.35 14.32c-.3.35-.67.7-1.1.33-.4-.34-.14-.77.15-1.12l7.7-9.23c.3-.34.73-.64 1.08-.34.37.3.16.8-.13 1.13l-7.7 9.24zm13.25-14.5c-.72-.6-.85-1.7-.3-2.36.58-.67 1.65-.74 2.38-.13.7.6.86 1.65.3 2.34-.58.67-1.67.72-2.38.13z" stroke="#000" stroke-opacity="0" fill="#fcce14"/></g><path d="M1313.13-298.05a8 8 0 0 1 8-8H1492a8 8 0 0 1 8 8v13.6a8 8 0 0 1-8 8h-170.87a8 8 0 0 1-8-8z" fill="none"/><g><use xlink:href="#G" transform="matrix(1,0,0,1,1313.1267446061072,-306.05038111649645) translate(9.024691358024683 12.444444444444446)"/><use xlink:href="#H" transform="matrix(1,0,0,1,1313.1267446061072,-306.05038111649645) translate(86.5 12.444444444444446)"/><use xlink:href="#I" transform="matrix(1,0,0,1,1313.1267446061072,-306.05038111649645) translate(140.85802469135803 12.444444444444446)"/><use xlink:href="#J" transform="matrix(1,0,0,1,1313.1267446061072,-306.05038111649645) translate(42.57716049382715 31.111111111111118)"/><use xlink:href="#K" transform="matrix(1,0,0,1,1313.1267446061072,-306.05038111649645) translate(116.85493827160494 31.111111111111118)"/><use xlink:href="#L" transform="matrix(1,0,0,1,1313.1267446061072,-306.05038111649645) translate(63.29629629629629 49.777777777777786)"/><use xlink:href="#M" transform="matrix(1,0,0,1,1313.1267446061072,-306.05038111649645) translate(89.22222222222223 49.777777777777786)"/></g><path d="M1300-152a8 8 0 0 1 8-8h204a8 8 0 0 1 8 8v34.76a8 8 0 0 1-8 8h-204a8 8 0 0 1-8-8z" fill="none"/><g><use xlink:href="#N" transform="matrix(1,0,0,1,1300,-160) translate(40.175925925925924 12.444444444444446)"/><use xlink:href="#O" transform="matrix(1,0,0,1,1300,-160) translate(143.70679012345678 12.444444444444446)"/><use xlink:href="#J" transform="matrix(1,0,0,1,1300,-160) translate(46.61419753086419 31.111111111111118)"/><use xlink:href="#P" transform="matrix(1,0,0,1,1300,-160) translate(120.89197530864197 31.111111111111118)"/><use xlink:href="#Q" transform="matrix(1,0,0,1,1300,-160) translate(152.7808641975309 31.111111111111118)"/><use xlink:href="#R" transform="matrix(1,0,0,1,1300,-160) translate(32.37654320987653 49.777777777777786)"/><use xlink:href="#S" transform="matrix(1,0,0,1,1300,-160) translate(36.69753086419752 49.777777777777786)"/><use xlink:href="#T" transform="matrix(1,0,0,1,1300,-160) translate(110.0679012345679 49.777777777777786)"/><use xlink:href="#U" transform="matrix(1,0,0,1,1300,-160) translate(161.83333333333334 49.777777777777786)"/></g><path d="M1300-474.6a8 8 0 0 1 8-8h184a8 8 0 0 1 8 8v6.6a8 8 0 0 1-8 8h-184a8 8 0 0 1-8-8z" fill="none"/><g><use xlink:href="#V" transform="matrix(1,0,0,1,1300,-482.6148620729492) translate(11.703703703703695 12.444444444444446)"/><use xlink:href="#W" transform="matrix(1,0,0,1,1300,-482.6148620729492) translate(160.820987654321 12.444444444444446)"/><use xlink:href="#X" transform="matrix(1,0,0,1,1300,-482.6148620729492) translate(11.617283950617278 31.111111111111118)"/><use xlink:href="#Y" transform="matrix(1,0,0,1,1300,-482.6148620729492) translate(71.16049382716048 31.111111111111118)"/><use xlink:href="#Z" transform="matrix(1,0,0,1,1300,-482.6148620729492) translate(91.90123456790123 31.111111111111118)"/><use xlink:href="#aa" transform="matrix(1,0,0,1,1300,-482.6148620729492) translate(133.3395061728395 31.111111111111118)"/><use xlink:href="#ab" transform="matrix(1,0,0,1,1300,-482.6148620729492) translate(21.447530864197518 49.777777777777786)"/><use xlink:href="#ac" transform="matrix(1,0,0,1,1300,-482.6148620729492) translate(51.694444444444436 49.777777777777786)"/><use xlink:href="#ad" transform="matrix(1,0,0,1,1300,-482.6148620729492) translate(127.74382716049382 49.777777777777786)"/><use xlink:href="#ae" transform="matrix(1,0,0,1,1300,-482.6148620729492) translate(145.02777777777777 49.777777777777786)"/></g><path d="M-21-219.73l-18.5-.26" stroke="#333" fill="none"/><path d="M-20.5-220.2v.95h-.52v-.96z" stroke="#333" stroke-width=".05" fill="#333"/><path d="M-39.5-220h-.5" stroke="#333" fill="none"/><defs><path d="M230 0l2-204L168 0h-37L68-204 70 0H24v-248h70l56 185 57-185h69V0h-46" id="af"/><path d="M110-194c64 0 96 36 96 99 0 64-35 99-97 99-61 0-95-36-95-99 0-62 34-99 96-99zm-1 164c35 0 45-28 45-65 0-40-10-65-43-65-34 0-45 26-45 65 0 36 10 65 43 65" id="ag"/><path d="M135-194c87-1 58 113 63 194h-50c-7-57 23-157-34-157-59 0-34 97-39 157H25l-1-190h47c2 12-1 28 3 38 12-26 28-41 61-42" id="ah"/><path d="M195-6C206 82 75 100 31 46c-4-6-6-13-8-21l49-6c3 16 16 24 34 25 40 0 42-37 40-79-11 22-30 35-61 35-53 0-70-43-70-97 0-56 18-96 73-97 30 0 46 14 59 34l2-30h47zm-90-29c32 0 41-27 41-63 0-35-9-62-40-62-32 0-39 29-40 63 0 36 9 62 39 62" id="ai"/><path d="M24-248c120-7 223 5 221 122C244-46 201 0 124 0H24v-248zM76-40c74 7 117-18 117-86 0-67-45-88-117-82v168" id="aj"/><path d="M182-130c37 4 62 22 62 59C244 23 116-4 24 0v-248c84 5 203-23 205 63 0 31-19 50-47 55zM76-148c40-3 101 13 101-30 0-44-60-28-101-31v61zm0 110c48-3 116 14 116-37 0-48-69-32-116-35v72" id="ak"/><g id="a"><use transform="matrix(0.05,0,0,0.05,0,0)" xlink:href="#af"/><use transform="matrix(0.05,0,0,0.05,14.950000000000001,0)" xlink:href="#ag"/><use transform="matrix(0.05,0,0,0.05,25.900000000000002,0)" xlink:href="#ah"/><use transform="matrix(0.05,0,0,0.05,36.85,0)" xlink:href="#ai"/><use transform="matrix(0.05,0,0,0.05,47.800000000000004,0)" xlink:href="#ag"/><use transform="matrix(0.05,0,0,0.05,58.75,0)" xlink:href="#aj"/><use transform="matrix(0.05,0,0,0.05,71.7,0)" xlink:href="#ak"/></g><path d="M199 0l-22-63H83L61 0H9l90-248h61L250 0h-51zm-33-102l-36-108c-10 38-24 72-36 108h72" id="al"/><path d="M115-3C79 11 28 4 28-45v-112H4v-33h27l15-45h31v45h36v33H77v99c-1 23 16 31 38 25v30" id="am"/><path d="M25 0v-261h50V0H25" id="an"/><path d="M133-34C117-15 103 5 69 4 32 3 11-16 11-54c-1-60 55-63 116-61 1-26-3-47-28-47-18 1-26 9-28 27l-52-2c7-38 36-58 82-57s74 22 75 68l1 82c-1 14 12 18 25 15v27c-30 8-71 5-69-32zm-48 3c29 0 43-24 42-57-32 0-66-3-65 30 0 17 8 27 23 27" id="ao"/><path d="M137-138c1-29-70-34-71-4 15 46 118 7 119 86 1 83-164 76-172 9l43-7c4 19 20 25 44 25 33 8 57-30 24-41C81-84 22-81 20-136c-2-80 154-74 161-7" id="ap"/><g id="b"><use transform="matrix(0.05,0,0,0.05,0,0)" xlink:href="#al"/><use transform="matrix(0.05,0,0,0.05,12.950000000000001,0)" xlink:href="#am"/><use transform="matrix(0.05,0,0,0.05,18.900000000000002,0)" xlink:href="#an"/><use transform="matrix(0.05,0,0,0.05,23.900000000000002,0)" xlink:href="#ao"/><use transform="matrix(0.05,0,0,0.05,33.900000000000006,0)" xlink:href="#ap"/></g><path d="M195 0l-88-114-31 24V0H24v-248h52v113l112-113h60L142-143 257 0h-62" id="aq"/><path d="M185-48c-13 30-37 53-82 52C43 2 14-33 14-96s30-98 90-98c62 0 83 45 84 108H66c0 31 8 55 39 56 18 0 30-7 34-22zm-45-69c5-46-57-63-70-21-2 6-4 13-4 21h74" id="ar"/><path d="M123 10C108 53 80 86 19 72V37c35 8 53-11 59-39L3-190h52l48 148c12-52 28-100 44-148h51" id="as"/><g id="c"><use transform="matrix(0.05,0,0,0.05,0,0)" xlink:href="#aq"/><use transform="matrix(0.05,0,0,0.05,12.950000000000001,0)" xlink:href="#ar"/><use transform="matrix(0.05,0,0,0.05,22.950000000000003,0)" xlink:href="#as"/></g><path d="M220-157c-53 9-28 100-34 157h-49v-107c1-27-5-49-29-50C55-147 81-57 75 0H25l-1-190h47c2 12-1 28 3 38 10-53 101-56 108 0 13-22 24-43 59-42 82 1 51 116 57 194h-49v-107c-1-25-5-48-29-50" id="at"/><g id="d"><use transform="matrix(0.05,0,0,0.05,0,0)" xlink:href="#af"/><use transform="matrix(0.05,0,0,0.05,14.950000000000001,0)" xlink:href="#ao"/><use transform="matrix(0.05,0,0,0.05,24.950000000000003,0)" xlink:href="#ah"/><use transform="matrix(0.05,0,0,0.05,35.900000000000006,0)" xlink:href="#ao"/><use transform="matrix(0.05,0,0,0.05,45.900000000000006,0)" xlink:href="#ai"/><use transform="matrix(0.05,0,0,0.05,56.85,0)" xlink:href="#ar"/><use transform="matrix(0.05,0,0,0.05,66.85000000000001,0)" xlink:href="#at"/><use transform="matrix(0.05,0,0,0.05,82.85000000000001,0)" xlink:href="#ar"/><use transform="matrix(0.05,0,0,0.05,92.85000000000001,0)" xlink:href="#ah"/><use transform="matrix(0.05,0,0,0.05,103.80000000000001,0)" xlink:href="#am"/></g><path d="M169-182c-1-43-94-46-97-3 18 66 151 10 154 114 3 95-165 93-204 36-6-8-10-19-12-30l50-8c3 46 112 56 116 5-17-69-150-10-154-114-4-87 153-88 188-35 5 8 8 18 10 28" id="au"/><path d="M135-150c-39-12-60 13-60 57V0H25l-1-190h47c2 13-1 29 3 40 6-28 27-53 61-41v41" id="av"/><path d="M128 0H69L1-190h53L99-40l48-150h52" id="aw"/><path d="M25-224v-37h50v37H25zM25 0v-190h50V0H25" id="ax"/><path d="M190-63c-7 42-38 67-86 67-59 0-84-38-90-98-12-110 154-137 174-36l-49 2c-2-19-15-32-35-32-30 0-35 28-38 64-6 74 65 87 74 30" id="ay"/><g id="e"><use transform="matrix(0.05,0,0,0.05,0,0)" xlink:href="#au"/><use transform="matrix(0.05,0,0,0.05,12,0)" xlink:href="#ar"/><use transform="matrix(0.05,0,0,0.05,22,0)" xlink:href="#av"/><use transform="matrix(0.05,0,0,0.05,29,0)" xlink:href="#aw"/><use transform="matrix(0.05,0,0,0.05,39,0)" xlink:href="#ax"/><use transform="matrix(0.05,0,0,0.05,44,0)" xlink:href="#ay"/><use transform="matrix(0.05,0,0,0.05,54,0)" xlink:href="#ar"/></g><path d="M240 0l2-218c-23 76-54 145-80 218h-23L58-218 59 0H30v-248h44l77 211c21-75 51-140 76-211h43V0h-30" id="az"/><path d="M100-194c62-1 85 37 85 99 1 63-27 99-86 99S16-35 15-95c0-66 28-99 85-99zM99-20c44 1 53-31 53-75 0-43-8-75-51-75s-53 32-53 75 10 74 51 75" id="aA"/><path d="M117-194c89-4 53 116 60 194h-32v-121c0-31-8-49-39-48C34-167 62-67 57 0H25l-1-190h30c1 10-1 24 2 32 11-22 29-35 61-36" id="aB"/><path d="M177-190C167-65 218 103 67 71c-23-6-38-20-44-43l32-5c15 47 100 32 89-28v-30C133-14 115 1 83 1 29 1 15-40 15-95c0-56 16-97 71-98 29-1 48 16 59 35 1-10 0-23 2-32h30zM94-22c36 0 50-32 50-73 0-42-14-75-50-75-39 0-46 34-46 75s6 73 46 73" id="aC"/><path d="M30-248c118-7 216 8 213 122C240-48 200 0 122 0H30v-248zM63-27c89 8 146-16 146-99s-60-101-146-95v194" id="aD"/><path d="M160-131c35 5 61 23 61 61C221 17 115-2 30 0v-248c76 3 177-17 177 60 0 33-19 50-47 57zm-97-11c50-1 110 9 110-42 0-47-63-36-110-37v79zm0 115c55-2 124 14 124-45 0-56-70-42-124-44v89" id="aE"/><g id="f"><use transform="matrix(0.061728395061728385,0,0,0.061728395061728385,0,0)" xlink:href="#az"/><use transform="matrix(0.061728395061728385,0,0,0.061728395061728385,18.456790123456788,0)" xlink:href="#aA"/><use transform="matrix(0.061728395061728385,0,0,0.061728395061728385,30.802469135802465,0)" xlink:href="#aB"/><use transform="matrix(0.061728395061728385,0,0,0.061728395061728385,43.14814814814814,0)" xlink:href="#aC"/><use transform="matrix(0.061728395061728385,0,0,0.061728395061728385,55.493827160493815,0)" xlink:href="#aA"/><use transform="matrix(0.061728395061728385,0,0,0.061728395061728385,67.83950617283949,0)" xlink:href="#aD"/><use transform="matrix(0.061728395061728385,0,0,0.061728395061728385,83.82716049382714,0)" xlink:href="#aE"/></g><path d="M141-36C126-15 110 5 73 4 37 3 15-17 15-53c-1-64 63-63 125-63 3-35-9-54-41-54-24 1-41 7-42 31l-33-3c5-37 33-52 76-52 45 0 72 20 72 64v82c-1 20 7 32 28 27v20c-31 9-61-2-59-35zM48-53c0 20 12 33 32 33 41-3 63-29 60-74-43 2-92-5-92 41" id="aF"/><path d="M135-143c-3-34-86-38-87 0 15 53 115 12 119 90S17 21 10-45l28-5c4 36 97 45 98 0-10-56-113-15-118-90-4-57 82-63 122-42 12 7 21 19 24 35" id="aG"/><path d="M59-47c-2 24 18 29 38 22v24C64 9 27 4 27-40v-127H5v-23h24l9-43h21v43h35v23H59v120" id="aH"/><path d="M100-194c63 0 86 42 84 106H49c0 40 14 67 53 68 26 1 43-12 49-29l28 8c-11 28-37 45-77 45C44 4 14-33 15-96c1-61 26-98 85-98zm52 81c6-60-76-77-97-28-3 7-6 17-6 28h103" id="aI"/><path d="M114-163C36-179 61-72 57 0H25l-1-190h30c1 12-1 29 2 39 6-27 23-49 58-41v29" id="aJ"/><g id="g"><use transform="matrix(0.061728395061728385,0,0,0.061728395061728385,0,0)" xlink:href="#az"/><use transform="matrix(0.061728395061728385,0,0,0.061728395061728385,18.456790123456788,0)" xlink:href="#aF"/><use transform="matrix(0.061728395061728385,0,0,0.061728395061728385,30.802469135802465,0)" xlink:href="#aG"/><use transform="matrix(0.061728395061728385,0,0,0.061728395061728385,41.913580246913575,0)" xlink:href="#aH"/><use transform="matrix(0.061728395061728385,0,0,0.061728395061728385,48.08641975308642,0)" xlink:href="#aI"/><use transform="matrix(0.061728395061728385,0,0,0.061728395061728385,60.432098765432094,0)" xlink:href="#aJ"/></g><path d="M194 0L95-120 63-95V0H30v-248h33v124l119-124h40L117-140 236 0h-42" id="aK"/><path d="M179-190L93 31C79 59 56 82 12 73V49c39 6 53-20 64-50L1-190h34L92-34l54-156h33" id="aL"/><g id="h"><use transform="matrix(0.061728395061728385,0,0,0.061728395061728385,0,0)" xlink:href="#aK"/><use transform="matrix(0.061728395061728385,0,0,0.061728395061728385,14.814814814814813,0)" xlink:href="#aI"/><use transform="matrix(0.061728395061728385,0,0,0.061728395061728385,27.16049382716049,0)" xlink:href="#aL"/></g><path d="M101-251c82-7 93 87 43 132L82-64C71-53 59-42 53-27h129V0H18c2-99 128-94 128-182 0-28-16-43-45-43s-46 15-49 41l-32-3c6-41 34-60 81-64" id="aM"/><use transform="matrix(0.061728395061728385,0,0,0.061728395061728385,0,0)" xlink:href="#aM" id="i"/><path d="M126-127c33 6 58 20 58 59 0 88-139 92-164 29-3-8-5-16-6-25l32-3c6 27 21 44 54 44 32 0 52-15 52-46 0-38-36-46-79-43v-28c39 1 72-4 72-42 0-27-17-43-46-43-28 0-47 15-49 41l-32-3c6-42 35-63 81-64 48-1 79 21 79 65 0 36-21 52-52 59" id="aN"/><use transform="matrix(0.061728395061728385,0,0,0.061728395061728385,0,0)" xlink:href="#aN" id="j"/><path d="M27 0v-27h64v-190l-56 39v-29l58-41h29v221h61V0H27" id="aO"/><use transform="matrix(0.061728395061728385,0,0,0.061728395061728385,0,0)" xlink:href="#aO" id="k"/><path d="M212-179c-10-28-35-45-73-45-59 0-87 40-87 99 0 60 29 101 89 101 43 0 62-24 78-52l27 14C228-24 195 4 139 4 59 4 22-46 18-125c-6-104 99-153 187-111 19 9 31 26 39 46" id="aP"/><path d="M84 4C-5 8 30-112 23-190h32v120c0 31 7 50 39 49 72-2 45-101 50-169h31l1 190h-30c-1-10 1-25-2-33-11 22-28 36-60 37" id="aQ"/><path d="M210-169c-67 3-38 105-44 169h-31v-121c0-29-5-50-35-48C34-165 62-65 56 0H25l-1-190h30c1 10-1 24 2 32 10-44 99-50 107 0 11-21 27-35 58-36 85-2 47 119 55 194h-31v-121c0-29-5-49-35-48" id="aR"/><path d="M16-82v-28h88v28H16" id="aS"/><path d="M85-194c31 0 48 13 60 33l-1-100h32l1 261h-30c-2-10 0-23-3-31C134-8 116 4 85 4 32 4 16-35 15-94c0-66 23-100 70-100zm9 24c-40 0-46 34-46 75 0 40 6 74 45 74 42 0 51-32 51-76 0-42-9-74-50-73" id="aT"/><g id="l"><use transform="matrix(0.06172839506172839,0,0,0.06172839506172839,0,0)" xlink:href="#aP"/><use transform="matrix(0.06172839506172839,0,0,0.06172839506172839,15.987654320987653,0)" xlink:href="#aQ"/><use transform="matrix(0.06172839506172839,0,0,0.06172839506172839,28.333333333333332,0)" xlink:href="#aG"/><use transform="matrix(0.06172839506172839,0,0,0.06172839506172839,39.44444444444444,0)" xlink:href="#aH"/><use transform="matrix(0.06172839506172839,0,0,0.06172839506172839,45.617283950617285,0)" xlink:href="#aA"/><use transform="matrix(0.06172839506172839,0,0,0.06172839506172839,57.96296296296296,0)" xlink:href="#aR"/><use transform="matrix(0.06172839506172839,0,0,0.06172839506172839,76.41975308641975,0)" xlink:href="#aI"/><use transform="matrix(0.06172839506172839,0,0,0.06172839506172839,88.76543209876543,0)" xlink:href="#aJ"/><use transform="matrix(0.06172839506172839,0,0,0.06172839506172839,96.11111111111111,0)" xlink:href="#aS"/><use transform="matrix(0.06172839506172839,0,0,0.06172839506172839,103.4567901234568,0)" xlink:href="#az"/><use transform="matrix(0.06172839506172839,0,0,0.06172839506172839,121.91358024691358,0)" xlink:href="#aF"/><use transform="matrix(0.06172839506172839,0,0,0.06172839506172839,134.25925925925927,0)" xlink:href="#aB"/><use transform="matrix(0.06172839506172839,0,0,0.06172839506172839,146.60493827160494,0)" xlink:href="#aF"/><use transform="matrix(0.06172839506172839,0,0,0.06172839506172839,158.9506172839506,0)" xlink:href="#aC"/><use transform="matrix(0.06172839506172839,0,0,0.06172839506172839,171.29629629629628,0)" xlink:href="#aI"/><use transform="matrix(0.06172839506172839,0,0,0.06172839506172839,183.64197530864195,0)" xlink:href="#aT"/></g><g id="m"><use transform="matrix(0.06172839506172839,0,0,0.06172839506172839,0,0)" xlink:href="#aK"/><use transform="matrix(0.06172839506172839,0,0,0.06172839506172839,14.814814814814813,0)" xlink:href="#aI"/><use transform="matrix(0.06172839506172839,0,0,0.06172839506172839,27.160493827160494,0)" xlink:href="#aL"/></g><path d="M87 75C49 33 22-17 22-94c0-76 28-126 65-167h31c-38 41-64 92-64 168S80 34 118 75H87" id="aU"/><path d="M33-261c38 41 65 92 65 168S71 34 33 75H2C39 34 66-17 66-93S39-220 2-261h31" id="aV"/><g id="n"><use transform="matrix(0.06172839506172839,0,0,0.06172839506172839,0,0)" xlink:href="#aU"/><use transform="matrix(0.06172839506172839,0,0,0.06172839506172839,7.345679012345679,0)" xlink:href="#aP"/><use transform="matrix(0.06172839506172839,0,0,0.06172839506172839,23.333333333333332,0)" xlink:href="#az"/><use transform="matrix(0.06172839506172839,0,0,0.06172839506172839,41.79012345679012,0)" xlink:href="#aK"/><use transform="matrix(0.06172839506172839,0,0,0.06172839506172839,56.60493827160494,0)" xlink:href="#aV"/></g><path d="M30-248c87 1 191-15 191 75 0 78-77 80-158 76V0H30v-248zm33 125c57 0 124 11 124-50 0-59-68-47-124-48v98" id="aW"/><path d="M24-231v-30h32v30H24zM24 0v-190h32V0H24" id="aX"/><g id="o"><use transform="matrix(0.04320987654320988,0,0,0.04320987654320988,0,0)" xlink:href="#aW"/><use transform="matrix(0.04320987654320988,0,0,0.04320987654320988,10.370370370370372,0)" xlink:href="#aJ"/><use transform="matrix(0.04320987654320988,0,0,0.04320987654320988,15.512345679012347,0)" xlink:href="#aX"/><use transform="matrix(0.04320987654320988,0,0,0.04320987654320988,18.92592592592593,0)" xlink:href="#aR"/><use transform="matrix(0.04320987654320988,0,0,0.04320987654320988,31.845679012345684,0)" xlink:href="#aF"/><use transform="matrix(0.04320987654320988,0,0,0.04320987654320988,40.48765432098766,0)" xlink:href="#aJ"/><use transform="matrix(0.04320987654320988,0,0,0.04320987654320988,45.62962962962963,0)" xlink:href="#aL"/></g><path d="M190 0L58-211 59 0H30v-248h39L202-35l-2-213h31V0h-41" id="aY"/><g id="p"><use transform="matrix(0.04320987654320988,0,0,0.04320987654320988,0,0)" xlink:href="#aY"/><use transform="matrix(0.04320987654320988,0,0,0.04320987654320988,11.19135802469136,0)" xlink:href="#aA"/><use transform="matrix(0.04320987654320988,0,0,0.04320987654320988,19.833333333333336,0)" xlink:href="#aT"/><use transform="matrix(0.04320987654320988,0,0,0.04320987654320988,28.47530864197531,0)" xlink:href="#aI"/></g><path d="M185-189c-5-48-123-54-124 2 14 75 158 14 163 119 3 78-121 87-175 55-17-10-28-26-33-46l33-7c5 56 141 63 141-1 0-78-155-14-162-118-5-82 145-84 179-34 5 7 8 16 11 25" id="aZ"/><path d="M96-169c-40 0-48 33-48 73s9 75 48 75c24 0 41-14 43-38l32 2c-6 37-31 61-74 61-59 0-76-41-82-99-10-93 101-131 147-64 4 7 5 14 7 22l-32 3c-4-21-16-35-41-35" id="ba"/><g id="q"><use transform="matrix(0.04320987654320988,0,0,0.04320987654320988,0,0)" xlink:href="#aZ"/><use transform="matrix(0.04320987654320988,0,0,0.04320987654320988,10.370370370370372,0)" xlink:href="#aI"/><use transform="matrix(0.04320987654320988,0,0,0.04320987654320988,19.01234567901235,0)" xlink:href="#ba"/><use transform="matrix(0.04320987654320988,0,0,0.04320987654320988,26.790123456790127,0)" xlink:href="#aA"/><use transform="matrix(0.04320987654320988,0,0,0.04320987654320988,35.4320987654321,0)" xlink:href="#aB"/><use transform="matrix(0.04320987654320988,0,0,0.04320987654320988,44.074074074074076,0)" xlink:href="#aT"/><use transform="matrix(0.04320987654320988,0,0,0.04320987654320988,52.71604938271606,0)" xlink:href="#aF"/><use transform="matrix(0.04320987654320988,0,0,0.04320987654320988,61.35802469135802,0)" xlink:href="#aJ"/><use transform="matrix(0.04320987654320988,0,0,0.04320987654320988,66.5,0)" xlink:href="#aL"/></g><g id="s"><use transform="matrix(0.04938271604938272,0,0,0.04938271604938272,0,0)" xlink:href="#aK"/><use transform="matrix(0.04938271604938272,0,0,0.04938271604938272,11.851851851851853,0)" xlink:href="#aI"/><use transform="matrix(0.04938271604938272,0,0,0.04938271604938272,21.7283950617284,0)" xlink:href="#aL"/></g><path d="M205 0l-28-72H64L36 0H1l101-248h38L239 0h-34zm-38-99l-47-123c-12 45-31 82-46 123h93" id="bb"/><g id="t"><use transform="matrix(0.04938271604938272,0,0,0.04938271604938272,0,0)" xlink:href="#aM"/><use transform="matrix(0.04938271604938272,0,0,0.04938271604938272,9.876543209876544,0)" xlink:href="#bb"/></g><g id="u"><use transform="matrix(0.04938271604938272,0,0,0.04938271604938272,0,0)" xlink:href="#aM"/><use transform="matrix(0.04938271604938272,0,0,0.04938271604938272,9.876543209876544,0)" xlink:href="#aE"/></g><g id="v"><use transform="matrix(0.04938271604938272,0,0,0.04938271604938272,0,0)" xlink:href="#aM"/><use transform="matrix(0.04938271604938272,0,0,0.04938271604938272,9.876543209876544,0)" xlink:href="#aP"/></g><g id="w"><use transform="matrix(0.04938271604938272,0,0,0.04938271604938272,0,0)" xlink:href="#aN"/><use transform="matrix(0.04938271604938272,0,0,0.04938271604938272,9.876543209876544,0)" xlink:href="#bb"/></g><g id="x"><use transform="matrix(0.04938271604938272,0,0,0.04938271604938272,0,0)" xlink:href="#aN"/><use transform="matrix(0.04938271604938272,0,0,0.04938271604938272,9.876543209876544,0)" xlink:href="#aE"/></g><g id="y"><use transform="matrix(0.04938271604938272,0,0,0.04938271604938272,0,0)" xlink:href="#aN"/><use transform="matrix(0.04938271604938272,0,0,0.04938271604938272,9.876543209876544,0)" xlink:href="#aP"/></g><g id="z"><use transform="matrix(0.04938271604938272,0,0,0.04938271604938272,0,0)" xlink:href="#aO"/><use transform="matrix(0.04938271604938272,0,0,0.04938271604938272,9.876543209876544,0)" xlink:href="#bb"/></g><g id="A"><use transform="matrix(0.04938271604938272,0,0,0.04938271604938272,0,0)" xlink:href="#aO"/><use transform="matrix(0.04938271604938272,0,0,0.04938271604938272,9.876543209876544,0)" xlink:href="#aE"/></g><g id="B"><use transform="matrix(0.04938271604938272,0,0,0.04938271604938272,0,0)" xlink:href="#aO"/><use transform="matrix(0.04938271604938272,0,0,0.04938271604938272,9.876543209876544,0)" xlink:href="#aP"/></g><path d="M115-194c53 0 69 39 70 98 0 66-23 100-70 100C84 3 66-7 56-30L54 0H23l1-261h32v101c10-23 28-34 59-34zm-8 174c40 0 45-34 45-75 0-40-5-75-45-74-42 0-51 32-51 76 0 43 10 73 51 73" id="bc"/><g id="C"><use transform="matrix(0.03703703703703702,0,0,0.03703703703703702,0,0)" xlink:href="#aD"/><use transform="matrix(0.03703703703703702,0,0,0.03703703703703702,9.592592592592588,0)" xlink:href="#aF"/><use transform="matrix(0.03703703703703702,0,0,0.03703703703703702,16.999999999999993,0)" xlink:href="#aH"/><use transform="matrix(0.03703703703703702,0,0,0.03703703703703702,20.703703703703695,0)" xlink:href="#aF"/><use transform="matrix(0.03703703703703702,0,0,0.03703703703703702,28.1111111111111,0)" xlink:href="#bc"/><use transform="matrix(0.03703703703703702,0,0,0.03703703703703702,35.518518518518505,0)" xlink:href="#aF"/><use transform="matrix(0.03703703703703702,0,0,0.03703703703703702,42.92592592592591,0)" xlink:href="#aG"/><use transform="matrix(0.03703703703703702,0,0,0.03703703703703702,49.592592592592574,0)" xlink:href="#aI"/></g><use transform="matrix(0.03703703703703702,0,0,0.03703703703703702,0,0)" xlink:href="#aO" id="D"/><use transform="matrix(0.03703703703703702,0,0,0.03703703703703702,0,0)" xlink:href="#aM" id="E"/><use transform="matrix(0.03703703703703702,0,0,0.03703703703703702,0,0)" xlink:href="#aN" id="F"/><g id="G"><use transform="matrix(0.04320987654320988,0,0,0.04320987654320988,0,0)" xlink:href="#af"/><use transform="matrix(0.04320987654320988,0,0,0.04320987654320988,12.919753086419755,0)" xlink:href="#ag"/><use transform="matrix(0.04320987654320988,0,0,0.04320987654320988,22.38271604938272,0)" xlink:href="#ah"/><use transform="matrix(0.04320987654320988,0,0,0.04320987654320988,31.845679012345684,0)" xlink:href="#ai"/><use transform="matrix(0.04320987654320988,0,0,0.04320987654320988,41.308641975308646,0)" xlink:href="#ag"/><use transform="matrix(0.04320987654320988,0,0,0.04320987654320988,50.77160493827161,0)" xlink:href="#aj"/><use transform="matrix(0.04320987654320988,0,0,0.04320987654320988,61.96296296296297,0)" xlink:href="#ak"/></g><g id="H"><use transform="matrix(0.04320987654320988,0,0,0.04320987654320988,0,0)" xlink:href="#af"/><use transform="matrix(0.04320987654320988,0,0,0.04320987654320988,12.919753086419755,0)" xlink:href="#ao"/><use transform="matrix(0.04320987654320988,0,0,0.04320987654320988,21.56172839506173,0)" xlink:href="#ap"/><use transform="matrix(0.04320987654320988,0,0,0.04320987654320988,30.203703703703713,0)" xlink:href="#am"/><use transform="matrix(0.04320987654320988,0,0,0.04320987654320988,35.345679012345684,0)" xlink:href="#ar"/><use transform="matrix(0.04320987654320988,0,0,0.04320987654320988,43.98765432098766,0)" xlink:href="#av"/></g><g id="I"><use transform="matrix(0.04320987654320988,0,0,0.04320987654320988,0,0)" xlink:href="#aq"/><use transform="matrix(0.04320987654320988,0,0,0.04320987654320988,11.19135802469136,0)" xlink:href="#ar"/><use transform="matrix(0.04320987654320988,0,0,0.04320987654320988,19.833333333333336,0)" xlink:href="#as"/><use transform="matrix(0.04320987654320988,0,0,0.04320987654320988,28.47530864197531,0)" xlink:href="#ap"/></g><path d="M30 0v-248h187v28H63v79h144v27H63v87h162V0H30" id="bd"/><path d="M115-194c55 1 70 41 70 98S169 2 115 4C84 4 66-9 55-30l1 105H24l-1-265h31l2 30c10-21 28-34 59-34zm-8 174c40 0 45-34 45-75s-6-73-45-74c-42 0-51 32-51 76 0 43 10 73 51 73" id="be"/><g id="J"><use transform="matrix(0.04320987654320988,0,0,0.04320987654320988,0,0)" xlink:href="#bd"/><use transform="matrix(0.04320987654320988,0,0,0.04320987654320988,10.370370370370372,0)" xlink:href="#aB"/><use transform="matrix(0.04320987654320988,0,0,0.04320987654320988,19.01234567901235,0)" xlink:href="#ba"/><use transform="matrix(0.04320987654320988,0,0,0.04320987654320988,26.790123456790127,0)" xlink:href="#aJ"/><use transform="matrix(0.04320987654320988,0,0,0.04320987654320988,31.9320987654321,0)" xlink:href="#aL"/><use transform="matrix(0.04320987654320988,0,0,0.04320987654320988,39.70987654320988,0)" xlink:href="#be"/><use transform="matrix(0.04320987654320988,0,0,0.04320987654320988,48.351851851851855,0)" xlink:href="#aH"/><use transform="matrix(0.04320987654320988,0,0,0.04320987654320988,52.67283950617284,0)" xlink:href="#aI"/><use transform="matrix(0.04320987654320988,0,0,0.04320987654320988,61.314814814814824,0)" xlink:href="#aT"/></g><path d="M206 0h-36l-40-164L89 0H53L-1-190h32L70-26l43-164h34l41 164 42-164h31" id="bf"/><path d="M106-169C34-169 62-67 57 0H25v-261h32l-1 103c12-21 28-36 61-36 89 0 53 116 60 194h-32v-121c2-32-8-49-39-48" id="bg"/><g id="K"><use transform="matrix(0.04320987654320988,0,0,0.04320987654320988,0,0)" xlink:href="#bf"/><use transform="matrix(0.04320987654320988,0,0,0.04320987654320988,11.19135802469136,0)" xlink:href="#aX"/><use transform="matrix(0.04320987654320988,0,0,0.04320987654320988,14.60493827160494,0)" xlink:href="#aH"/><use transform="matrix(0.04320987654320988,0,0,0.04320987654320988,18.925925925925927,0)" xlink:href="#bg"/></g><g id="L"><use transform="matrix(0.04320987654320988,0,0,0.04320987654320988,0,0)" xlink:href="#aH"/><use transform="matrix(0.04320987654320988,0,0,0.04320987654320988,4.320987654320988,0)" xlink:href="#bg"/><use transform="matrix(0.04320987654320988,0,0,0.04320987654320988,12.962962962962964,0)" xlink:href="#aI"/></g><g id="M"><use transform="matrix(0.04320987654320988,0,0,0.04320987654320988,0,0)" xlink:href="#aP"/><use transform="matrix(0.04320987654320988,0,0,0.04320987654320988,11.19135802469136,0)" xlink:href="#az"/><use transform="matrix(0.04320987654320988,0,0,0.04320987654320988,24.111111111111114,0)" xlink:href="#aK"/></g><path d="M24-248c93 1 206-16 204 79-1 75-69 88-152 82V0H24v-248zm52 121c47 0 100 7 100-41 0-47-54-39-100-39v80" id="bh"/><path d="M14-72v-43h91v43H14" id="bi"/><path d="M135-194c52 0 70 43 70 98 0 56-19 99-73 100-30 1-46-15-58-35L72 0H24l1-261h50v104c11-23 29-37 60-37zM114-30c31 0 40-27 40-66 0-37-7-63-39-63s-41 28-41 65c0 36 8 64 40 64" id="bj"/><g id="N"><use transform="matrix(0.04320987654320988,0,0,0.04320987654320988,0,0)" xlink:href="#bh"/><use transform="matrix(0.04320987654320988,0,0,0.04320987654320988,10.370370370370372,0)" xlink:href="#ar"/><use transform="matrix(0.04320987654320988,0,0,0.04320987654320988,19.01234567901235,0)" xlink:href="#av"/><use transform="matrix(0.04320987654320988,0,0,0.04320987654320988,25.06172839506173,0)" xlink:href="#bi"/><use transform="matrix(0.04320987654320988,0,0,0.04320987654320988,30.203703703703706,0)" xlink:href="#aj"/><use transform="matrix(0.04320987654320988,0,0,0.04320987654320988,41.39506172839506,0)" xlink:href="#ao"/><use transform="matrix(0.04320987654320988,0,0,0.04320987654320988,50.037037037037045,0)" xlink:href="#am"/><use transform="matrix(0.04320987654320988,0,0,0.04320987654320988,55.179012345679006,0)" xlink:href="#ao"/><use transform="matrix(0.04320987654320988,0,0,0.04320987654320988,63.82098765432099,0)" xlink:href="#bj"/><use transform="matrix(0.04320987654320988,0,0,0.04320987654320988,73.28395061728395,0)" xlink:href="#ao"/><use transform="matrix(0.04320987654320988,0,0,0.04320987654320988,81.92592592592592,0)" xlink:href="#ap"/><use transform="matrix(0.04320987654320988,0,0,0.04320987654320988,90.56790123456788,0)" xlink:href="#ar"/></g><g id="O"><use transform="matrix(0.04320987654320988,0,0,0.04320987654320988,0,0)" xlink:href="#aq"/><use transform="matrix(0.04320987654320988,0,0,0.04320987654320988,11.19135802469136,0)" xlink:href="#ar"/><use transform="matrix(0.04320987654320988,0,0,0.04320987654320988,19.833333333333336,0)" xlink:href="#as"/><use transform="matrix(0.04320987654320988,0,0,0.04320987654320988,28.47530864197531,0)" xlink:href="#ap"/></g><g id="P"><use transform="matrix(0.04320987654320988,0,0,0.04320987654320988,0,0)" xlink:href="#bf"/><use transform="matrix(0.04320987654320988,0,0,0.04320987654320988,11.19135802469136,0)" xlink:href="#aX"/><use transform="matrix(0.04320987654320988,0,0,0.04320987654320988,14.60493827160494,0)" xlink:href="#aH"/><use transform="matrix(0.04320987654320988,0,0,0.04320987654320988,18.925925925925927,0)" xlink:href="#bg"/></g><g id="Q"><use transform="matrix(0.04320987654320988,0,0,0.04320987654320988,0,0)" xlink:href="#aH"/><use transform="matrix(0.04320987654320988,0,0,0.04320987654320988,4.320987654320988,0)" xlink:href="#bg"/><use transform="matrix(0.04320987654320988,0,0,0.04320987654320988,12.962962962962964,0)" xlink:href="#aI"/></g><g id="S"><use transform="matrix(0.04320987654320988,0,0,0.04320987654320988,0,0)" xlink:href="#az"/><use transform="matrix(0.04320987654320988,0,0,0.04320987654320988,12.919753086419755,0)" xlink:href="#aA"/><use transform="matrix(0.04320987654320988,0,0,0.04320987654320988,21.56172839506173,0)" xlink:href="#aB"/><use transform="matrix(0.04320987654320988,0,0,0.04320987654320988,30.203703703703713,0)" xlink:href="#aC"/><use transform="matrix(0.04320987654320988,0,0,0.04320987654320988,38.845679012345684,0)" xlink:href="#aA"/><use transform="matrix(0.04320987654320988,0,0,0.04320987654320988,47.48765432098766,0)" xlink:href="#aD"/><use transform="matrix(0.04320987654320988,0,0,0.04320987654320988,58.67901234567902,0)" xlink:href="#aE"/></g><g id="T"><use transform="matrix(0.04320987654320988,0,0,0.04320987654320988,0,0)" xlink:href="#az"/><use transform="matrix(0.04320987654320988,0,0,0.04320987654320988,12.919753086419755,0)" xlink:href="#aF"/><use transform="matrix(0.04320987654320988,0,0,0.04320987654320988,21.56172839506173,0)" xlink:href="#aG"/><use transform="matrix(0.04320987654320988,0,0,0.04320987654320988,29.33950617283951,0)" xlink:href="#aH"/><use transform="matrix(0.04320987654320988,0,0,0.04320987654320988,33.6604938271605,0)" xlink:href="#aI"/><use transform="matrix(0.04320987654320988,0,0,0.04320987654320988,42.302469135802475,0)" xlink:href="#aJ"/></g><g id="U"><use transform="matrix(0.04320987654320988,0,0,0.04320987654320988,0,0)" xlink:href="#aK"/><use transform="matrix(0.04320987654320988,0,0,0.04320987654320988,10.370370370370372,0)" xlink:href="#aI"/><use transform="matrix(0.04320987654320988,0,0,0.04320987654320988,19.01234567901235,0)" xlink:href="#aL"/></g><path d="M67-125c0 53 21 87 73 88 37 1 54-22 65-47l45 17C233-25 199 4 140 4 58 4 20-42 15-125 8-235 124-281 211-232c18 10 29 29 36 50l-46 12c-8-25-30-41-62-41-52 0-71 34-72 86" id="bk"/><path d="M85 4C-2 5 27-109 22-190h50c7 57-23 150 33 157 60-5 35-97 40-157h50l1 190h-47c-2-12 1-28-3-38-12 25-28 42-61 42" id="bl"/><path d="M88-194c31-1 46 15 58 34l-1-101h50l1 261h-48c-2-10 0-23-3-31C134-8 116 4 84 4 32 4 16-41 15-95c0-56 19-97 73-99zm17 164c33 0 40-30 41-66 1-37-9-64-41-64s-38 30-39 65c0 43 13 65 39 65" id="bm"/><g id="V"><use transform="matrix(0.04320987654320988,0,0,0.04320987654320988,0,0)" xlink:href="#bk"/><use transform="matrix(0.04320987654320988,0,0,0.04320987654320988,11.19135802469136,0)" xlink:href="#bl"/><use transform="matrix(0.04320987654320988,0,0,0.04320987654320988,20.654320987654323,0)" xlink:href="#ap"/><use transform="matrix(0.04320987654320988,0,0,0.04320987654320988,29.296296296296298,0)" xlink:href="#am"/><use transform="matrix(0.04320987654320988,0,0,0.04320987654320988,34.43827160493827,0)" xlink:href="#ag"/><use transform="matrix(0.04320987654320988,0,0,0.04320987654320988,43.901234567901234,0)" xlink:href="#at"/><use transform="matrix(0.04320987654320988,0,0,0.04320987654320988,57.72839506172839,0)" xlink:href="#ar"/><use transform="matrix(0.04320987654320988,0,0,0.04320987654320988,66.37037037037037,0)" xlink:href="#av"/><use transform="matrix(0.04320987654320988,0,0,0.04320987654320988,72.41975308641975,0)" xlink:href="#bi"/><use transform="matrix(0.04320987654320988,0,0,0.04320987654320988,77.56172839506172,0)" xlink:href="#af"/><use transform="matrix(0.04320987654320988,0,0,0.04320987654320988,90.48148148148147,0)" xlink:href="#ao"/><use transform="matrix(0.04320987654320988,0,0,0.04320987654320988,99.12345679012344,0)" xlink:href="#ah"/><use transform="matrix(0.04320987654320988,0,0,0.04320987654320988,108.58641975308642,0)" xlink:href="#ao"/><use transform="matrix(0.04320987654320988,0,0,0.04320987654320988,117.22839506172839,0)" xlink:href="#ai"/><use transform="matrix(0.04320987654320988,0,0,0.04320987654320988,126.69135802469135,0)" xlink:href="#ar"/><use transform="matrix(0.04320987654320988,0,0,0.04320987654320988,135.33333333333334,0)" xlink:href="#bm"/></g><g id="W"><use transform="matrix(0.04320987654320988,0,0,0.04320987654320988,0,0)" xlink:href="#aq"/><use transform="matrix(0.04320987654320988,0,0,0.04320987654320988,11.19135802469136,0)" xlink:href="#ar"/><use transform="matrix(0.04320987654320988,0,0,0.04320987654320988,19.833333333333336,0)" xlink:href="#as"/></g><g id="X"><use transform="matrix(0.04320987654320988,0,0,0.04320987654320988,0,0)" xlink:href="#aP"/><use transform="matrix(0.04320987654320988,0,0,0.04320987654320988,11.19135802469136,0)" xlink:href="#aJ"/><use transform="matrix(0.04320987654320988,0,0,0.04320987654320988,16.333333333333336,0)" xlink:href="#aI"/><use transform="matrix(0.04320987654320988,0,0,0.04320987654320988,24.97530864197531,0)" xlink:href="#aF"/><use transform="matrix(0.04320987654320988,0,0,0.04320987654320988,33.617283950617285,0)" xlink:href="#aH"/><use transform="matrix(0.04320987654320988,0,0,0.04320987654320988,37.93827160493827,0)" xlink:href="#aI"/><use transform="matrix(0.04320987654320988,0,0,0.04320987654320988,46.58024691358024,0)" xlink:href="#aT"/></g><g id="Y"><use transform="matrix(0.04320987654320988,0,0,0.04320987654320988,0,0)" xlink:href="#bc"/><use transform="matrix(0.04320987654320988,0,0,0.04320987654320988,8.641975308641976,0)" xlink:href="#aL"/></g><path d="M24 0v-261h32V0H24" id="bn"/><g id="Z"><use transform="matrix(0.04320987654320988,0,0,0.04320987654320988,0,0)" xlink:href="#ba"/><use transform="matrix(0.04320987654320988,0,0,0.04320987654320988,7.777777777777779,0)" xlink:href="#bn"/><use transform="matrix(0.04320987654320988,0,0,0.04320987654320988,11.19135802469136,0)" xlink:href="#aA"/><use transform="matrix(0.04320987654320988,0,0,0.04320987654320988,19.833333333333336,0)" xlink:href="#aQ"/><use transform="matrix(0.04320987654320988,0,0,0.04320987654320988,28.47530864197531,0)" xlink:href="#aT"/></g><path d="M108 0H70L1-190h34L89-25l56-165h34" id="bo"/><g id="aa"><use transform="matrix(0.04320987654320988,0,0,0.04320987654320988,0,0)" xlink:href="#be"/><use transform="matrix(0.04320987654320988,0,0,0.04320987654320988,8.641975308641976,0)" xlink:href="#aJ"/><use transform="matrix(0.04320987654320988,0,0,0.04320987654320988,13.783950617283953,0)" xlink:href="#aA"/><use transform="matrix(0.04320987654320988,0,0,0.04320987654320988,22.425925925925934,0)" xlink:href="#bo"/><use transform="matrix(0.04320987654320988,0,0,0.04320987654320988,30.203703703703713,0)" xlink:href="#aX"/><use transform="matrix(0.04320987654320988,0,0,0.04320987654320988,33.61728395061729,0)" xlink:href="#aT"/><use transform="matrix(0.04320987654320988,0,0,0.04320987654320988,42.25925925925927,0)" xlink:href="#aI"/><use transform="matrix(0.04320987654320988,0,0,0.04320987654320988,50.90123456790124,0)" xlink:href="#aJ"/></g><g id="ab"><use transform="matrix(0.04320987654320988,0,0,0.04320987654320988,0,0)" xlink:href="#aF"/><use transform="matrix(0.04320987654320988,0,0,0.04320987654320988,8.641975308641976,0)" xlink:href="#aB"/><use transform="matrix(0.04320987654320988,0,0,0.04320987654320988,17.283950617283953,0)" xlink:href="#aT"/></g><g id="ac"><use transform="matrix(0.04320987654320988,0,0,0.04320987654320988,0,0)" xlink:href="#ba"/><use transform="matrix(0.04320987654320988,0,0,0.04320987654320988,7.777777777777779,0)" xlink:href="#aA"/><use transform="matrix(0.04320987654320988,0,0,0.04320987654320988,16.419753086419753,0)" xlink:href="#aB"/><use transform="matrix(0.04320987654320988,0,0,0.04320987654320988,25.061728395061728,0)" xlink:href="#aB"/><use transform="matrix(0.04320987654320988,0,0,0.04320987654320988,33.7037037037037,0)" xlink:href="#aI"/><use transform="matrix(0.04320987654320988,0,0,0.04320987654320988,42.34567901234568,0)" xlink:href="#ba"/><use transform="matrix(0.04320987654320988,0,0,0.04320987654320988,50.123456790123456,0)" xlink:href="#aH"/><use transform="matrix(0.04320987654320988,0,0,0.04320987654320988,54.44444444444444,0)" xlink:href="#aI"/><use transform="matrix(0.04320987654320988,0,0,0.04320987654320988,63.08641975308642,0)" xlink:href="#aT"/></g><g id="ad"><use transform="matrix(0.04320987654320988,0,0,0.04320987654320988,0,0)" xlink:href="#aH"/><use transform="matrix(0.04320987654320988,0,0,0.04320987654320988,4.320987654320988,0)" xlink:href="#aA"/></g><g id="ae"><use transform="matrix(0.04320987654320988,0,0,0.04320987654320988,0,0)" xlink:href="#bb"/><use transform="matrix(0.04320987654320988,0,0,0.04320987654320988,10.370370370370372,0)" xlink:href="#aH"/><use transform="matrix(0.04320987654320988,0,0,0.04320987654320988,14.691358024691363,0)" xlink:href="#bn"/><use transform="matrix(0.04320987654320988,0,0,0.04320987654320988,18.104938271604944,0)" xlink:href="#aF"/><use transform="matrix(0.04320987654320988,0,0,0.04320987654320988,26.746913580246915,0)" xlink:href="#aG"/></g></defs></g></svg>